<svg xmlns="http://www.w3.org/2000/svg" viewBox="0 0 720 720"><defs><style>.cls-1{fill:#00689d;}.cls-2{fill:#fff;}</style></defs><title>VN_SDG_icons_RGB outlines-01</title><g id="goal_background" data-name="goal background"><rect class="cls-1" x="-1.08" y="-1.08" width="722.16" height="722.16"/></g><g id="ENG_text_graphics" data-name="ENG text &amp; graphics"><path class="cls-2" d="M49.12,88.93C45,91.14,33.31,94.37,29.23,96.41V76.86c5.44-2.21,20.57-9.52,25.67-15.13H75.47v137.7H49.12Z"/><path class="cls-2" d="M80.57,156.08v-49C80.57,80.26,88.05,60,117.63,60c25.33,0,34.68,12.41,34.85,34.85v2.38H127.66c0-11.56-1.19-17.17-9.86-17.17-8.33,0-10.54,6.63-10.54,27.88v13.94c2.89-4.93,9.52-7.82,17.68-8,21.93-.34,29.75,16.83,29.75,39.61,0,28.05-8.84,47.77-36.89,47.77C91.45,201.3,80.57,182.09,80.57,156.08ZM128.34,158c0-13.94-.34-24-10.54-24a12.6,12.6,0,0,0-10.54,6.29V162.2c0,10.37,2.21,19.55,10.71,19.55C126.64,181.75,128.34,173.08,128.34,158Z"/><path class="cls-2" d="M478.85,334.28s-7,9.35-5,18.46,12.46,14.54,12.46,14.54,7-9.35,5-18.46-12.45-14.54-12.45-14.54"/><path class="cls-2" d="M467.37,387.7s7.05-9.36,5-18.48-12.44-14.53-12.44-14.53-7.05,9.35-5,18.47,12.46,14.54,12.46,14.54"/><path class="cls-2" d="M496.32,377.68s7.44,7.5,15.91,6.74S527,375,527,375s-7.43-7.5-15.91-6.75-14.75,9.47-14.75,9.47"/><path class="cls-2" d="M508.51,337.61c-6.89,7-5.92,19.37-5.92,19.37s12.14,1,19.05-5.94,5.92-19.36,5.92-19.36-12.16-1.05-19,5.93"/><path class="cls-2" d="M493.3,405.48c8.44,1,16.38-6.24,16.38-6.24s-5.75-8.87-14.18-9.86-16.39,6.25-16.39,6.25,5.75,8.86,14.19,9.85"/><path class="cls-2" d="M500.84,541.17H437.75a8.92,8.92,0,1,0,0,17.84h63.09a8.92,8.92,0,1,0,0-17.84"/><path class="cls-2" d="M500.84,639.54H437.75a8.93,8.93,0,1,0,0,17.85h63.09a8.93,8.93,0,0,0,0-17.85"/><path class="cls-2" d="M217.12,519.5a39.79,39.79,0,0,0-4.38-1.13s1.62.5,4.38,1.13"/><path class="cls-2" d="M498.51,565.25H440.06a5.08,5.08,0,0,0-5.08,5.07V588l-38.16,4.19L341.07,591V556.89a151.94,151.94,0,0,0,22.18-4.5c53.66-15.14,65.37-48.57,64.2-79.26-1.17-31.27,8.84-43.41,23.21-48.81a65.07,65.07,0,0,1,11.92-3.16c.16,7.68,1.72,16.61,5.15,27.25,1.27-.07,2.54-.18,3.8-.32-3.62-10.88-5.17-19.83-5.26-27.46a66.53,66.53,0,0,1,12.73-.38,81.08,81.08,0,0,1-12.11-8.63c2.41-14.81,11.23-23.9,20.32-33.19,5-5.12,10.16-10.4,14.22-16.7l-3.17-2c-3.84,6-8.89,11.12-13.75,16.1-8.87,9.07-17.81,18.33-20.84,33a120.13,120.13,0,0,1-9.19-9.25c-13.23-14.84-30.27-3.94-54.56,18.68s-54.87,23.38-84.72-7.16c-39.38-40.32-73.73-40.08-97.29-37.8,16.11,6.87,21.75,21.93,29.91,60.2,8.55,40.16,30.1,58.34,59.6,60.84-13.68,2.22-17.22,4.11-39.2,19.3-17.16,11.84-41.31,8.09-51.1,5.87,18,5.6,39.26,24.45,58.3,31a141,141,0,0,0,34.76,7.13v32.6L204.43,588V610.7l192.39-4.27,38.16,4.2v17.69a5.09,5.09,0,0,0,5.08,5.09h58.45a5.1,5.1,0,0,0,5.09-5.09v-58A5.09,5.09,0,0,0,498.51,565.25Zm-179.14-7.14c4.16.07,8.33-.05,12.51-.33v33l-12.51-.28Z"/><path class="cls-2" d="M199,606.94c0,4.79-3.35,8.68-7.47,8.68H187c-4.12,0-7.48-3.89-7.48-8.68V591.22c0-4.8,3.36-8.68,7.48-8.68h4.49c4.12,0,7.47,3.88,7.47,8.68Z"/><path class="cls-2" d="M230.49,61.7H240v22h10.73v-22h9.62v52.65h-9.62V90.56H240v23.79h-9.55Z"/><path class="cls-2" d="M265.65,97.84V78.08c0-10.66,3.9-17,15.21-17S296,67.42,296,78.08V97.84c0,10.6-3.9,17.23-15.15,17.23S265.65,108.5,265.65,97.84Zm5.07-52.78h9l3.84,13h-5.07Zm15.54,55.05V75.87c0-4.42-.72-7.74-5.4-7.74s-5.46,3.32-5.46,7.74v24.24c0,4.36.72,7.87,5.46,7.87S286.26,104.47,286.26,100.11Z"/><path class="cls-2" d="M308.62,61.7h10.27l10.53,52.65h-8.91l-2.08-12.16h-9.16l-2.15,12.16h-9Zm8.77,34.38L313.82,74l-3.58,22.1Z"/><path class="cls-2" d="M346.58,61.7h13c9.23,0,15.4,3.12,15.4,13.52,0,6.43-2.66,10-7.6,10.79,6.17,1.17,9.1,5.59,9.1,13,0,10.07-4.94,15.34-14.69,15.34H346.58Zm12.87,21.51c5.72,0,7.21-2.53,7.21-7.86,0-5.59-2.73-7-8.58-7h-1.95V83.21Zm.39,24.38c5.85,0,7.47-2.73,7.47-8.65,0-6.24-2.08-9.1-7.8-9.1h-3.38v17.75Z"/><path class="cls-2" d="M375.69,45.06h9l3.84,13h-5.07Zm5.4,16.64h9.49v52.65h-9.49Z"/><path class="cls-2" d="M396.75,61.7h6.7l12.8,30v-30h7.94v52.65h-6.37L404.94,82.89v31.46h-8.19Z"/><path class="cls-2" d="M430.36,61.7h9.55v22h10.73v-22h9.62v52.65h-9.62V90.56H439.91v23.79h-9.55Z"/><path class="cls-2" d="M465.59,119.94a5.39,5.39,0,0,0,4.22-5.59h-4.68v-8.78h8.65v8c0,5.59-2.41,8.65-7.28,9.56Z"/><path class="cls-2" d="M229.51,176.51V157.73c0-10.79,3.45-17.62,15-17.62,10.79,0,14.23,6,14.23,15.15v4.42h-9.23v-4.55c0-4.42-.06-8-4.94-8s-5.39,3.77-5.39,8.58v22.82c0,5.72,1.17,8.45,5.39,8.45,4.75,0,4.94-3.71,4.94-8.39v-4.74h9.23v4.22c0,9.3-3.12,16-14.23,16C233,194.07,229.51,186.78,229.51,176.51Z"/><path class="cls-2" d="M262.66,176.84V157.08c0-10.66,3.9-17,15.21-17s15.15,6.31,15.15,17v19.76c0,10.6-3.9,17.23-15.15,17.23S262.66,187.5,262.66,176.84Zm11.18-52.26h7.93l6,12h-6.56l-3.38-7.8-3.32,7.8H268Zm9.43,54.53V154.87c0-4.42-.72-7.74-5.4-7.74s-5.46,3.32-5.46,7.74v24.24c0,4.36.72,7.87,5.46,7.87S283.27,183.47,283.27,179.11Z"/><path class="cls-2" d="M298.15,140.7h6.69l12.81,30v-30h7.93v52.65h-6.37l-12.87-31.46v31.46h-8.19Z"/><path class="cls-2" d="M330.78,176V158.31c0-11.31,3.45-18.2,15-18.2,10.79,0,14.56,5.59,14.56,15.34v2.73h-9.17v-3c0-5.07-.52-8.06-5.26-8.06-5.07,0-5.46,4.1-5.46,8.91v22c0,5.46,1,8.91,5.72,8.91s5.78-3.64,5.78-9.36v-4.94h-5.65v-6.05h14.3v26.72h-6.24l-.65-5.13c-1.43,3.38-4,5.85-8.91,5.85C334.42,194.07,330.78,187.11,330.78,176Z"/><path class="cls-2" d="M379.85,140.7h9.56v46.08h12.8v6.57H379.85Z"/><path class="cls-2" d="M409.36,173.26,398.7,140.7h9l6.5,20.86,6.11-20.86h8.78l-10.53,32.56v20.09h-9.17Zm5.79-49.2h9l-7.74,13h-5.13Z"/><path class="cls-2" d="M443.1,140.7h8.45l6.95,37.24,6.57-37.24h8.65l-10.6,52.65H453.7Z"/><path class="cls-2" d="M483.07,140.7h10.27l10.53,52.65H495l-2.08-12.16h-9.17l-2.14,12.16h-9Zm-4.94-16.64h9l3.84,13h-5.07Zm13.72,51L488.27,153l-3.57,22.1Z"/><path class="cls-2" d="M229.51,252.51V233.73c0-10.79,3.45-17.62,15-17.62,10.79,0,14.23,6,14.23,15.15v4.42h-9.23v-4.55c0-4.42-.06-8-4.94-8s-5.39,3.77-5.39,8.58v22.82c0,5.72,1.17,8.45,5.39,8.45,4.75,0,4.94-3.71,4.94-8.39v-4.74h9.23v4.22c0,9.3-3.12,16-14.23,16C233,270.07,229.51,262.78,229.51,252.51Z"/><path class="cls-2" d="M271.37,216.7h10.27l10.53,52.65h-8.9l-2.08-12.16H272l-2.15,12.16h-9Zm8.78,34.38L276.57,229,273,251.08Zm-2.34-51h9l-7.74,13h-5.13Z"/><path class="cls-2" d="M294.12,252.51V233.73c0-10.79,3.45-17.62,15-17.62,10.79,0,14.23,6,14.23,15.15v4.42h-9.23v-4.55c0-4.42-.06-8-4.94-8s-5.39,3.77-5.39,8.58v22.82c0,5.72,1.17,8.45,5.39,8.45,4.75,0,4.94-3.71,4.94-8.39v-4.74h9.23v4.22c0,9.3-3.12,16-14.23,16C297.57,270.07,294.12,262.78,294.12,252.51Z"/><path class="cls-2" d="M347.23,223.78h-8.39V216.7H365v7.08h-8.19v45.57h-9.62Z"/><path class="cls-2" d="M368,216.7h9.56v22H388.3v-22h9.62v52.65H388.3V245.56H377.58v23.79H368Z"/><path class="cls-2" d="M404,216.7h22.1v6.76H413.59V238.6h9.88v6.7h-9.88v17.48h12.67v6.57H404Zm7.22-14.63h7.93l6,10.47h-6.44L415.21,206l-3.44,6.57H405.4ZM423.34,204c1.62-1.17,2.73-2.21,2.73-3.84s-1.3-2.53-3.12-2.53a9.36,9.36,0,0,0-3.12.52v-4a14.9,14.9,0,0,1,5.07-.84c4,0,7.08,1.95,7.08,6s-2.73,6-6,7.54Z"/><path class="cls-2" d="M442.9,252.51V233.73c0-10.79,3.45-17.62,15-17.62,10.79,0,14.23,6,14.23,15.15v4.42h-9.23v-4.55c0-4.42-.06-8-4.94-8s-5.39,3.77-5.39,8.58v22.82c0,5.72,1.17,8.45,5.39,8.45,4.75,0,4.94-3.71,4.94-8.39v-4.74h9.23v4.22c0,9.3-3.12,16-14.23,16C446.35,270.07,442.9,262.78,442.9,252.51Z"/><path class="cls-2" d="M477,216.7h9.55v22h10.73v-22h9.62v52.65h-9.62V245.56H486.58v23.79H477Z"/><path class="cls-2" d="M513,216.7h22.1v6.76H522.59V238.6h9.88v6.7h-9.88v17.48h12.68v6.57H513Zm7.21-14.63h7.93l6,10.47h-6.43L524.22,206l-3.45,6.57H514.4Zm16-4.48h7l-5.52,7.73H532.8Z"/><path class="cls-2" d="M231.14,289.7h9.94l7.48,36.46,7.73-36.46H266l1,52.65H259.8l-.78-36.6-7.47,36.6h-5.79l-7.6-36.73-.72,36.73h-7.21Z"/><path class="cls-2" d="M280.66,289.7h10.28l10.53,52.65h-8.91l-2.08-12.16h-9.16l-2.15,12.16h-9Zm1.11,57h8.06v8.12h-8.06Zm7.67-22.63L285.87,302l-3.58,22.1Z"/><path class="cls-2" d="M304.78,289.7h6.69l12.81,30v-30h7.93v52.65h-6.37L313,310.89v31.46h-8.19Z"/><path class="cls-2" d="M338.38,289.7h9.56v22h10.73v-22h9.62v52.65h-9.62V318.56H347.94v23.79h-9.56Z"/><path class="cls-2" d="M389,289.7H399l7.48,36.46,7.74-36.46h9.68l1,52.65h-7.15l-.78-36.6-7.48,36.6h-5.78L396,305.62l-.71,36.73h-7.22Z"/><path class="cls-2" d="M430.68,289.7h22.1v6.76H440.24V311.6h9.88v6.7h-9.88v17.48h12.67v6.57H430.68Zm8.06-9.95c-1.69,0-2.27,1-2.27,2.67h-4.55c0-4.68,1.3-8.19,5.52-8.19,3.19,0,5.33,3,8.13,3,1.49,0,2.08-.91,2.08-2.6h4.29c0,4.09-.72,8.19-4.94,8.19C443.62,282.81,441.41,279.75,438.74,279.75Z"/></g></svg>