<svg xmlns="http://www.w3.org/2000/svg" viewBox="0 0 720 720"><defs><style>.cls-1{fill:#4c9f38;}.cls-2{fill:#fff;}</style></defs><title>VN_SDG_icons_RGB outlines-01</title><g id="goal_background" data-name="goal background"><rect class="cls-1" x="-1.08" y="-1.08" width="722.16" height="722.16"/></g><g id="ENG_text_graphics" data-name="ENG text &amp; graphics"><path class="cls-2" d="M54.61,160.16V155.4H80.79V160C81,173.42,83.34,179.71,92,179.71c8.84,0,10.71-6.8,10.71-19.89,0-13.77-3.23-21.59-15.3-21.93a29.18,29.18,0,0,0-4.59-.17V118.51h4.08c12.24,0,15.81-6.29,15.81-20.4,0-11-2.55-17.34-11.22-17.34S81,88.25,80.79,99v6.12H54.61V97.6c0-24.14,13.6-37.74,36.89-37.74,23.46,0,37.06,12.92,37.06,36.89,0,16.15-7.48,27.37-17.34,30.09,10,3.74,17.34,12.92,17.34,32.47,0,25-10,42.5-36.89,42.5C64.13,201.81,54.61,185.15,54.61,160.16Z"/><path class="cls-2" d="M187.4,98.61l8.3-1.56c.18,6.57,1.58,9.75,4.68,9.75,2.46,0,3.22-2,3.22-4.29,0-4.48-2-7-5.2-10.07l-4.92-4.75c-3.51-3.31-6-7.15-6-13.32,0-8.65,5-13.39,12.87-13.39,9.53,0,11.46,7.86,11.81,14.62L203.78,77c-.12-4.81-.59-8.13-3.75-8.13-2.22,0-3.33,2.21-3.33,4.49,0,3.77,1.64,5.78,4.27,8.32l4.8,4.68c4,3.83,7.25,8.45,7.25,15.6,0,7.54-4.85,13.06-12.23,13.06C192,115,187.81,109.79,187.4,98.61Z"/><path class="cls-2" d="M243.73,64.49V97.64c0,11-3,17.35-13.74,17.35s-13.69-6.3-13.69-17.35v-36h9.47v37.5c0,4,.41,8.06,4.22,8.06s4.21-4,4.21-8.06V61.63h4.15c2.34,0,3.16-1.76,3.16-5.4h6.26C247.77,60.26,246.25,63,243.73,64.49Zm-11.11-6.76h-5.38l3.56-13.07h9Z"/><path class="cls-2" d="M248.29,97.44V78.59c0-10.85,3.22-17.61,13.87-17.61,10.18,0,13.28,6.11,13.28,15.21v4.42h-9.36V75.73c0-3.7-.12-7.08-3.86-7.08s-4.16,3.51-4.16,7.41V100c0,4.48.76,7.34,4.16,7.34,3.68,0,3.86-3.51,3.86-7.34V94.84h9.36V99.2c0,9.16-2.93,15.79-13.28,15.79C251.51,115,248.29,108,248.29,97.44Z"/><path class="cls-2" d="M293.05,61.63h9.59V83.86l8.6-22.23h9.36l-8.89,23.66,9.59,29h-9.77l-7.31-23.53-1.58,2.86v20.67h-9.59Z"/><path class="cls-2" d="M324,61.63h9.66V83.21H342V61.63h9.65v52.65H342V90.94h-8.36v23.34H324Z"/><path class="cls-2" d="M356.75,97.7V78.07c0-10.79,3.51-17.09,14-17.09s14,6.37,14,17.09v19.7c0,10.72-3.57,17.22-14,17.22S356.75,108.49,356.75,97.7Zm11.06-42.57c2.34-1.24,4.09-2.15,4.09-4.1,0-1.75-1.4-2.34-3.39-2.34a14.45,14.45,0,0,0-3.45.46V44.92a20.69,20.69,0,0,1,5.67-.84c3.75,0,7,1.82,7,6.3s-3.21,6.44-7,7.93Zm7.08,45.24V75.47c0-3.64-.53-6.82-4.16-6.82s-4.15,3.18-4.15,6.82v24.9c0,3.57.41,6.95,4.15,6.95S374.89,103.94,374.89,100.37Z"/><path class="cls-2" d="M389.69,61.63h20.65V69H399.28V83h8.54v7.48h-8.54V107h11.18v7.28H389.69Z"/><path class="cls-2" d="M424.79,61.63h8.36L438.77,98,444,61.63h8.72l-9,52.65H433.8Z"/><path class="cls-2" d="M461.17,61.63h10.71L481,114.28h-8.9l-1.75-11.57h-7.49l-1.81,11.57H452Zm-4.38-17h9.06l3.51,13.07H464Zm12.63,51.42-2.86-21.19-2.81,21.19Z"/><path class="cls-2" d="M187.87,183.44V164.59c0-10.85,3.21-17.61,13.86-17.61,10.18,0,13.28,6.11,13.28,15.21v4.42h-9.36v-4.88c0-3.7-.12-7.08-3.86-7.08s-4.15,3.51-4.15,7.41V186c0,4.48.76,7.34,4.15,7.34,3.68,0,3.86-3.51,3.86-7.34v-5.14H215v4.36c0,9.16-2.92,15.79-13.28,15.79C191.08,201,187.87,194,187.87,183.44Z"/><path class="cls-2" d="M218.75,183.7V164.07c0-10.79,3.51-17.09,14-17.09s14,6.37,14,17.09v19.7c0,10.72-3.57,17.22-14,17.22S218.75,194.49,218.75,183.7Zm18.14,2.67v-24.9c0-3.64-.53-6.82-4.16-6.82s-4.15,3.18-4.15,6.82v24.9c0,3.57.41,6.95,4.15,6.95S236.89,189.94,236.89,186.37Zm-3.39-55.71h9l-7.19,13.07h-5.38Z"/><path class="cls-2" d="M264.15,183.44V164.59c0-10.85,3.22-17.61,13.86-17.61,10.18,0,13.28,6.11,13.28,15.21v4.42h-9.36v-4.88c0-3.7-.11-7.08-3.86-7.08s-4.15,3.51-4.15,7.41V186c0,4.48.76,7.34,4.15,7.34,3.69,0,3.86-3.51,3.86-7.34v-5.14h9.36v4.36c0,9.16-2.92,15.79-13.28,15.79C267.37,201,264.15,194,264.15,183.44Z"/><path class="cls-2" d="M295.39,183.64v-36h9.47v37.5c0,4,.41,8.06,4.22,8.06s4.21-4,4.21-8.06v-37.5h9.53v36c0,11.05-3,17.35-13.74,17.35S295.39,194.69,295.39,183.64Z"/><path class="cls-2" d="M327.39,183.7V164.07c0-10.79,3.51-17.09,14-17.09s14,6.37,14,17.09v19.7c0,10.72-3.57,17.22-14,17.22S327.39,194.49,327.39,183.7Zm10.18-51.15h7.48l5.56,10.66h-6.32l-3-6.5-2.93,6.5h-6.26Zm7.95,53.82v-24.9c0-3.64-.53-6.82-4.15-6.82s-4.16,3.18-4.16,6.82v24.9c0,3.57.41,6.95,4.16,6.95S345.52,189.94,345.52,186.37Zm-8,18.33h7.72v8.64h-7.72Z"/><path class="cls-2" d="M359.62,183.44V164.59c0-10.85,3.22-17.61,13.86-17.61,10.18,0,13.28,6.11,13.28,15.21v4.42H377.4v-4.88c0-3.7-.11-7.08-3.86-7.08s-4.15,3.51-4.15,7.41V186c0,4.48.76,7.34,4.15,7.34,3.69,0,3.86-3.51,3.86-7.34v-5.14h9.36v4.36c0,9.16-2.92,15.79-13.28,15.79C362.84,201,359.62,194,359.62,183.44Z"/><path class="cls-2" d="M403.2,184.61l8.31-1.56c.17,6.57,1.58,9.75,4.68,9.75,2.46,0,3.22-2,3.22-4.29,0-4.48-2.05-7-5.21-10.07l-4.92-4.75c-3.51-3.31-6-7.15-6-13.32,0-8.65,5-13.39,12.87-13.39,9.54,0,11.47,7.86,11.82,14.62L419.58,163c-.12-4.81-.58-8.13-3.74-8.13-2.23,0-3.34,2.21-3.34,4.49,0,3.77,1.64,5.78,4.27,8.32l4.8,4.68c4,3.83,7.25,8.45,7.25,15.6,0,7.54-4.85,13.06-12.22,13.06C407.82,201,403.61,195.79,403.2,184.61Z"/><path class="cls-2" d="M431.75,183.7V164.07c0-10.79,3.51-17.09,14-17.09s14,6.37,14,17.09v19.7c0,10.72-3.57,17.22-14,17.22S431.75,194.49,431.75,183.7Zm10.18-51.15h7.49L455,143.21h-6.31l-3-6.5-2.92,6.5h-6.26Zm7.95,53.82v-24.9c0-3.64-.52-6.82-4.15-6.82s-4.15,3.18-4.15,6.82v24.9c0,3.57.41,6.95,4.15,6.95S449.88,189.94,449.88,186.37Zm6.73-58.5h6.79l-5.09,7.86h-4.8Z"/><path class="cls-2" d="M464.68,147.63h6.73L481.94,175V147.63h8v52.65h-6.5l-10.53-29.12v29.12h-8.25Z"/><path class="cls-2" d="M494.93,182.86V165.24c0-11.24,3.21-18.26,13.86-18.26,10.18,0,13.52,6,13.52,15.4v3.06h-9.37v-3.71c0-4.09-.29-7.08-4-7.08-3.92,0-4.16,3.7-4.16,7.6v23.4c0,4.36.77,7.67,4.45,7.67s4.56-3.44,4.56-8v-5.59h-4.62v-6.5h13.34v27h-6.32l-.64-4.68c-1.23,3.12-3.51,5.46-7.78,5.46C498.09,201.06,494.93,193.84,494.93,182.86Z"/><path class="cls-2" d="M545.24,155.56h-7.32v-7.93h24.22v7.93H555v44.72h-9.71Z"/><path class="cls-2" d="M563.9,183.7V164.07c0-10.79,3.51-17.09,14-17.09s14,6.37,14,17.09v19.7c0,10.72-3.57,17.22-14,17.22S563.9,194.49,563.9,183.7Zm10.18-51.15h7.48l5.56,10.66H580.8l-3-6.5-2.92,6.5h-6.26ZM582,186.37v-24.9c0-3.64-.52-6.82-4.15-6.82s-4.15,3.18-4.15,6.82v24.9c0,3.57.4,6.95,4.15,6.95S582,189.94,582,186.37Zm6.73-58.5h6.79l-5.09,7.86h-4.8Z"/><path class="cls-2" d="M600.93,155.56h-7.32v-7.93h24.22v7.93h-7.19v44.72h-9.71Z"/><path class="cls-2" d="M603.67,450.66c0-20.41-13.1-37-32.94-37-9.92,0-21.89,10.86-28.38,17.54-6.5-6.69-17.68-17.56-27.6-17.56-19.84,0-33.74,16.55-33.74,37a37.36,37.36,0,0,0,10.53,26.14h0l50.85,50.95,50.78-50.89,0,0A37.39,37.39,0,0,0,603.67,450.66Z"/><path class="cls-2" d="M387.15,610.91h-.51a8.36,8.36,0,0,1-7.72-6.93L353.09,453.53,314,526.08a8.35,8.35,0,0,1-15.61-2.78L281.74,407.2l-30.4,68.26a8.35,8.35,0,0,1-7.63,5H125.59a8.35,8.35,0,1,1,0-16.7h112.7l40-89.79a8.35,8.35,0,0,1,15.89,2.22l17.13,119.71,38.59-71.54a8.35,8.35,0,0,1,15.58,2.55l23.92,139.33,87.18-289.6a8.35,8.35,0,0,1,15.52-1.22L538,370.47a8.35,8.35,0,1,1-15.05,7.25L486.37,302,395.15,605A8.36,8.36,0,0,1,387.15,610.91Z"/></g></svg>