<svg xmlns="http://www.w3.org/2000/svg" viewBox="0 0 720 720"><defs><style>.cls-1{fill:#ff3a21;}.cls-2{fill:#fff;}</style></defs><title>VN_SDG_icons_RGB outlines-01</title><g id="goal_background" data-name="goal background"><rect class="cls-1" x="-1.08" y="-1.08" width="722.16" height="722.16"/></g><g id="ENG_text_graphics" data-name="ENG text &amp; graphics"><path class="cls-2" d="M55.63,159.48h25.5c0,15.13,1.87,23,11.39,22.61,10-.34,10.54-11.56,10.54-29.58,0-14.62-1.53-25-11.73-25-6.12,0-10,4.25-11.73,12.41H57l1.87-78.2H122.1V84.34H80.28l-1.36,30.43c2.72-3.4,9.69-6.12,17.34-6.63,21.25-1.87,31.62,15,31.62,43.18,0,29.24-5.61,50.32-36.89,50.32C61.92,201.64,55.63,185,55.63,159.48Z"/><path class="cls-2" d="M189,61.63h13c9.23,0,15.41,3.12,15.41,13.52,0,6.43-2.67,10-7.61,10.79,6.18,1.17,9.1,5.59,9.1,13,0,10.07-4.94,15.34-14.69,15.34H189Zm12.87,21.51c5.72,0,7.22-2.53,7.22-7.86,0-5.59-2.73-7-8.58-7h-1.95V83.14Zm.39,24.38c5.85,0,7.48-2.73,7.48-8.65,0-6.24-2.08-9.1-7.8-9.1h-3.38v17.75Z"/><path class="cls-2" d="M219.71,45h9l3.83,13h-5.07Zm5.39,16.64h9.49v52.65H225.1Z"/><path class="cls-2" d="M242.39,61.63h6.7l12.8,30v-30h7.93v52.65h-6.37L250.58,82.82v31.46h-8.19Z"/><path class="cls-2" d="M277.62,61.63h9.56v22H297.9v-22h9.62v52.65H297.9V90.49H287.18v23.79h-9.56Z"/><path class="cls-2" d="M331,89.51h-3.25V84.7H331V61.63H343.4C356.21,61.63,360,66.76,360,78V97.18c0,11.57-4,17.1-16.31,17.1H331Zm12.61,18.07c6.63,0,6.82-3.51,6.82-10.07V77.36c0-6.31-.65-8.91-6.95-8.91h-3.06V84.7h3.51v4.81h-3.51v18.07Z"/><path class="cls-2" d="M374.28,61.63h10.27l10.53,52.65h-8.91l-2.08-12.16h-9.16l-2.15,12.16h-9ZM370.12,48h5c.07,3.18,1.24,4.81,4.36,4.81S383.83,51,383.83,48h5.07c0,5.78-3.18,9.49-9.42,9.49S370.12,53.76,370.12,48Zm7.34-3.06c1.69-1.17,2.73-2.21,2.73-3.83s-1.23-2.54-3.05-2.54a10.4,10.4,0,0,0-3.19.52v-4a15,15,0,0,1,5.07-.85c4,0,7.09,2,7.09,6.05,0,3.77-2.73,6-6.05,7.54ZM383.05,96l-3.57-22.1L375.9,96Z"/><path class="cls-2" d="M400,61.63h6.69l12.81,30v-30h7.93v52.65h-6.37L408.21,82.82v31.46H400Z"/><path class="cls-2" d="M434.27,96.92V79.24c0-11.31,3.45-18.2,15-18.2,10.79,0,14.56,5.59,14.56,15.34v2.73h-9.17v-3c0-5.07-.52-8.06-5.26-8.06-5.07,0-5.46,4.1-5.46,8.91V99c0,5.46,1,8.91,5.72,8.91s5.78-3.64,5.78-9.36V93.61h-5.65v-6h14.3v26.72h-6.24l-.65-5.14c-1.43,3.38-4,5.85-8.91,5.85C437.91,115,434.27,108,434.27,96.92Z"/><path class="cls-2" d="M188.12,182.92V165.24c0-11.31,3.44-18.2,15-18.2,10.79,0,14.56,5.59,14.56,15.34v2.73h-9.16v-3c0-5.07-.52-8.06-5.27-8.06-5.07,0-5.46,4.1-5.46,8.91v22c0,5.46,1,8.91,5.72,8.91s5.79-3.64,5.79-9.36v-4.94h-5.66v-6.05H218v26.72h-6.24l-.65-5.14a8.87,8.87,0,0,1-8.9,5.85C191.76,201,188.12,194,188.12,182.92Z"/><path class="cls-2" d="M225.23,147.63h9.49v52.65h-9.49Z"/><path class="cls-2" d="M272,164v19.76c0,10.59-3.9,17.22-15.14,17.22s-15.21-6.56-15.21-17.22V164c0-10.66,3.9-17,15.21-17a24.78,24.78,0,0,1,5.13.52c2.08-.26,2.8-1.95,2.8-5.13h6.43c0,3.7-1.43,6.3-3.9,7.73C270.73,153,272,157.77,272,164Zm-9.75-2.21c0-4.42-.71-7.74-5.39-7.74s-5.46,3.32-5.46,7.74V186c0,4.36.71,7.87,5.46,7.87s5.39-3.51,5.39-7.87ZM259.36,144h-5.14l3.9-13h9Z"/><path class="cls-2" d="M279.05,147.63h9.49v52.65h-9.49Z"/><path class="cls-2" d="M525.68,271.77H435.52a1.15,1.15,0,0,0-1.15,1.14v30a1.16,1.16,0,0,0,1.15,1.15h35.9L431.56,343.9a118,118,0,0,0-190.91,92.88c0,60,44.92,109.57,102.85,117.08v34.52H307.94a1.14,1.14,0,0,0-1.16,1.14v32.12a1.13,1.13,0,0,0,1.16,1.14H343.5v34a1.14,1.14,0,0,0,1.15,1.15h32.1a1.15,1.15,0,0,0,1.16-1.15v-34h35.56a1.13,1.13,0,0,0,1.14-1.14V589.52a1.14,1.14,0,0,0-1.14-1.14H377.91V553.3a118,118,0,0,0,77.36-184.44l39.3-39.31v33.54a1.15,1.15,0,0,0,1.16,1.14h29.95a1.16,1.16,0,0,0,1.17-1.14V272.91a1.16,1.16,0,0,0-1.17-1.14M358.75,523.71a86.93,86.93,0,1,1,86.92-86.93,87,87,0,0,1-86.92,86.93"/><path class="cls-2" d="M411.84,401.1H306.41a1.1,1.1,0,0,0-1.15,1v25.52a1.09,1.09,0,0,0,1.15,1.05H411.84a1.09,1.09,0,0,0,1.17-1.05V402.13a1.1,1.1,0,0,0-1.17-1"/><path class="cls-2" d="M411.84,446.68H306.41a1.11,1.11,0,0,0-1.15,1.06v25.52a1.08,1.08,0,0,0,1.15,1H411.84a1.09,1.09,0,0,0,1.17-1V447.74a1.11,1.11,0,0,0-1.17-1.06"/></g></svg>