<svg xmlns="http://www.w3.org/2000/svg" viewBox="0 0 720 720"><defs><style>.cls-1{fill:#dd1367;}.cls-2{fill:#fff;}</style></defs><title>VN_SDG_icons_RGB outlines-01</title><g id="goal_background" data-name="goal background"><rect class="cls-1" x="-1.08" y="-1.08" width="722.16" height="722.16"/></g><g id="ENG_text_graphics" data-name="ENG text &amp; graphics"><path class="cls-2" d="M50.12,88.93C46,91.14,34.31,94.37,30.23,96.41V76.86c5.44-2.21,20.57-9.52,25.67-15.13H76.47v137.7H50.12Z"/><path class="cls-2" d="M81.91,162V100.32c0-24.14,11.39-40.46,36.89-40.46,25.16,0,36.72,16.32,36.72,40.46V162c0,23.29-12.58,39.78-36.72,39.78C94.15,201.81,81.91,185.49,81.91,162Zm46.92-.51V100.83c0-7.31-.68-17.85-10-17.85-9.69,0-10.2,10.54-10.2,17.85v60.69c0,6.8,1.19,17.17,10.2,17.17C127.64,178.69,128.83,168.32,128.83,161.52Z"/><path class="cls-2" d="M228.89,96.92V79.24c0-11.31,3.44-18.2,15-18.2,10.79,0,14.56,5.59,14.56,15.34v2.73H249.3v-3c0-5.07-.52-8.06-5.27-8.06-5.07,0-5.46,4.1-5.46,8.91V99c0,5.46,1,8.91,5.72,8.91s5.79-3.64,5.79-9.36V93.61h-5.66v-6h14.3v26.72h-6.24l-.65-5.14a8.87,8.87,0,0,1-8.9,5.85C232.53,115,228.89,108,228.89,96.92Z"/><path class="cls-2" d="M264.64,61.63h9.49v52.65h-9.49Z"/><path class="cls-2" d="M288.43,61.63H298.7l10.53,52.65h-8.91l-2.08-12.16h-9.16l-2.15,12.16h-9Zm2.34-6.5c2.53-1.11,4.42-2.08,4.42-3.9s-1.63-2.47-3.84-2.47a13.12,13.12,0,0,0-3.64.52v-4a22.87,22.87,0,0,1,6-.78c4,0,7.54,1.82,7.54,6.11s-3.38,6.11-7.54,7.6ZM297.2,96l-3.57-22.1L290.05,96Z"/><path class="cls-2" d="M313.58,61.63h9.94L331,98.09l7.74-36.46h9.68l1,52.65h-7.16l-.77-36.6L334,114.28H328.2l-7.6-36.73-.72,36.73h-7.21Z"/><path class="cls-2" d="M229.73,147.63h13c9.23,0,15.41,3.12,15.41,13.52,0,6.43-2.67,10-7.61,10.79,6.18,1.17,9.1,5.59,9.1,13,0,10.07-4.94,15.34-14.69,15.34H229.73Zm12.87,21.51c5.72,0,7.22-2.53,7.22-7.86,0-5.59-2.73-7-8.58-7h-2v14.82Zm.39,24.38c5.85,0,7.48-2.73,7.48-8.65,0-6.24-2.08-9.1-7.8-9.1h-3.38v17.75Z"/><path class="cls-2" d="M272.05,147.63h10.27l10.53,52.65h-8.91l-2.08-12.16H272.7l-2.15,12.16h-9ZM273.22,133h7.93l6,10.47h-6.44l-3.51-6.57-3.44,6.57h-6.37Zm7.6,49-3.57-22.1L273.67,182Zm8.39-53.49h7l-5.53,7.73h-4.94Z"/><path class="cls-2" d="M299.22,154.71h-8.39v-7.08H317v7.08h-8.19v45.57h-9.62Z"/><path class="cls-2" d="M334.25,147.63h13c9.23,0,15.41,3.12,15.41,13.52,0,6.43-2.67,10-7.61,10.79,6.18,1.17,9.1,5.59,9.1,13,0,10.07-4.94,15.34-14.69,15.34H334.25Zm12.87,21.51c5.72,0,7.21-2.53,7.21-7.86,0-5.59-2.72-7-8.58-7H343.8v14.82Zm.39,24.38c5.85,0,7.48-2.73,7.48-8.65,0-6.24-2.08-9.1-7.81-9.1H343.8v17.75Z"/><path class="cls-2" d="M363.63,131h9l3.83,13h-5.07ZM369,147.63h9.49v52.65H369Z"/><path class="cls-2" d="M385,147.63h6.69l12.81,30v-30h7.93v52.65H406l-12.87-31.46v31.46H385Z"/><path class="cls-2" d="M418.81,147.63h9.56v22h10.72v-22h9.62v52.65h-9.62V176.49H428.37v23.79h-9.56Z"/><path class="cls-2" d="M469.45,175.51H466.2V170.7h3.25V147.63h12.41c12.81,0,16.64,5.13,16.64,16.38v19.17c0,11.57-4,17.1-16.31,17.1H469.45Zm12.61,18.07c6.63,0,6.82-3.51,6.82-10.07V163.36c0-6.31-.65-8.91-6.95-8.91h-3.06V170.7h3.51v4.81h-3.51v18.07Z"/><path class="cls-2" d="M511.37,147.63h10.27l10.53,52.65h-8.9l-2.08-12.16H512l-2.14,12.16h-9ZM507.21,134h5c.06,3.18,1.23,4.81,4.35,4.81s4.36-1.76,4.36-4.81H526c0,5.78-3.19,9.49-9.43,9.49S507.21,139.76,507.21,134Zm7.35-3.06c1.69-1.17,2.73-2.21,2.73-3.83s-1.24-2.54-3.06-2.54a10.34,10.34,0,0,0-3.18.52v-4a15,15,0,0,1,5.07-.85c4,0,7.08,1.95,7.08,6,0,3.77-2.73,6-6,7.54ZM520.15,182l-3.58-22.1L513,182Z"/><path class="cls-2" d="M535.75,147.63h6.69l12.81,30v-30h7.93v52.65h-6.37l-12.87-31.46v31.46h-8.19Z"/><path class="cls-2" d="M568.64,182.92V165.24c0-11.31,3.44-18.2,15-18.2,10.79,0,14.56,5.59,14.56,15.34v2.73h-9.16v-3c0-5.07-.52-8.06-5.27-8.06-5.07,0-5.46,4.1-5.46,8.91v22c0,5.46,1,8.91,5.72,8.91s5.79-3.64,5.79-9.36v-4.94h-5.66v-6.05h14.3v26.72h-6.24l-.65-5.14a8.87,8.87,0,0,1-8.9,5.85C572.28,201,568.64,194,568.64,182.92Z"/><path class="cls-2" d="M427,472.8H294a1.53,1.53,0,0,0-1.44,1.61v40A1.53,1.53,0,0,0,294,516H427a1.54,1.54,0,0,0,1.46-1.63v-40A1.54,1.54,0,0,0,427,472.8"/><path class="cls-2" d="M427,387.75H294a1.53,1.53,0,0,0-1.44,1.61v40A1.53,1.53,0,0,0,294,431H427a1.54,1.54,0,0,0,1.46-1.63v-40a1.54,1.54,0,0,0-1.46-1.61"/><path class="cls-2" d="M425.14,327.33,361.3,263.49a1.1,1.1,0,0,0-1.56,0L295.9,327.33a1.1,1.1,0,0,0,.78,1.88H424.36A1.1,1.1,0,0,0,425.14,327.33Z"/><path class="cls-2" d="M485.07,516.5l63.84-63.84a1.1,1.1,0,0,0,0-1.56l-63.84-63.84a1.11,1.11,0,0,0-1.89.78V515.72A1.11,1.11,0,0,0,485.07,516.5Z"/><path class="cls-2" d="M295.9,576.43l63.84,63.83a1.09,1.09,0,0,0,1.56,0l63.84-63.83a1.11,1.11,0,0,0-.78-1.89H296.68A1.11,1.11,0,0,0,295.9,576.43Z"/><path class="cls-2" d="M236,387.26,172.13,451.1a1.1,1.1,0,0,0,0,1.56L236,516.5a1.1,1.1,0,0,0,1.88-.78V388A1.1,1.1,0,0,0,236,387.26Z"/></g></svg>