<svg xmlns="http://www.w3.org/2000/svg" viewBox="0 0 720 720"><defs><style>.cls-1{fill:#26bde2;}.cls-2{fill:#fff;}</style></defs><title>VN_SDG_icons_RGB outlines-01</title><g id="goal_background" data-name="goal background"><rect class="cls-1" x="-1.08" y="-1.08" width="722.16" height="722.16"/></g><g id="ENG_text_graphics" data-name="ENG text &amp; graphics"><path class="cls-2" d="M57.16,156.08v-49C57.16,80.26,64.64,60,94.22,60c25.33,0,34.68,12.41,34.85,34.85v2.38H104.25c0-11.56-1.19-17.17-9.86-17.17-8.33,0-10.54,6.63-10.54,27.88v13.94c2.89-4.93,9.52-7.82,17.68-8,21.93-.34,29.75,16.83,29.75,39.61,0,28.05-8.84,47.77-36.89,47.77C68,201.3,57.16,182.09,57.16,156.08ZM104.93,158c0-13.94-.34-24-10.54-24a12.6,12.6,0,0,0-10.54,6.29V162.2c0,10.37,2.21,19.55,10.71,19.55C103.23,181.75,104.93,173.08,104.93,158Z"/><path class="cls-2" d="M189,61.63h6.7l12.81,30v-30h7.92v52.65H210L197.15,82.82v31.46H189Z"/><path class="cls-2" d="M253.31,64.55v32.7c0,11-3.05,17.74-14.82,17.74s-14.82-6.69-14.82-17.74V61.63H233V98.35c0,5,.59,9.49,5.46,9.49s5.53-4.48,5.53-9.49V61.63h4c2.61,0,3.51-1.69,3.51-5.2h6.44C257.93,60.52,256.24,63.19,253.31,64.55Z"/><path class="cls-2" d="M290,78V97.77c0,10.59-3.9,17.22-15.15,17.22s-15.21-6.56-15.21-17.22V78c0-10.66,3.9-17,15.21-17a24.88,24.88,0,0,1,5.14.52c2.08-.26,2.79-2,2.79-5.13h6.44c0,3.7-1.43,6.3-3.9,7.73C288.74,67,290,71.77,290,78Zm-9.75-2.21c0-4.42-.72-7.74-5.4-7.74s-5.46,3.32-5.46,7.74V100c0,4.36.72,7.87,5.46,7.87s5.4-3.51,5.4-7.87ZM277.36,58h-5.13l3.9-13h9Z"/><path class="cls-2" d="M296,97.44V78.66C296,67.87,299.4,61,311,61c10.79,0,14.23,6,14.23,15.15v4.42H316V76.06c0-4.42-.06-8-4.94-8s-5.39,3.77-5.39,8.58V99.46c0,5.72,1.17,8.45,5.39,8.45,4.75,0,4.94-3.71,4.94-8.39V94.78h9.23V99c0,9.3-3.12,16-14.23,16C299.4,115,296,107.71,296,97.44Z"/><path class="cls-2" d="M345.74,98.94,354,97.31c.26,6.24,1.75,10.27,6,10.27,3,0,4.35-2.08,4.35-4.94,0-4.55-2.34-7.08-5.78-10.07l-6.63-5.79c-3.77-3.25-6.11-6.89-6.11-12.74,0-8.32,5.2-13,13.58-13,9.88,0,12.68,6.63,13.2,14.3l-8.26,1.43c-.19-4.94-.91-8.64-5.13-8.64-2.86,0-4.42,2.14-4.42,4.94,0,3.57,1.49,5.52,4.29,7.93l6.56,5.78c4.29,3.71,7.87,8.32,7.87,15.28,0,7.6-5.33,12.93-13.2,12.93C350.68,115,346.13,109.4,345.74,98.94Z"/><path class="cls-2" d="M386.43,61.63H396.7l10.53,52.65h-8.9l-2.08-12.16h-9.17l-2.14,12.16h-9Zm1.11,57h8.06v8.13h-8.06ZM395.21,96l-3.58-22.1L388.06,96Z"/><path class="cls-2" d="M410.81,97.44V78.66c0-10.79,3.44-17.62,15-17.62,10.79,0,14.24,6,14.24,15.15v4.42h-9.23V76.06c0-4.42-.07-8-4.94-8s-5.4,3.77-5.4,8.58V99.46c0,5.72,1.17,8.45,5.4,8.45,4.74,0,4.94-3.71,4.94-8.39V94.78h9.23V99c0,9.3-3.12,16-14.24,16C414.25,115,410.81,107.71,410.81,97.44Z"/><path class="cls-2" d="M446.56,61.63h9.55v22h10.73v-22h9.62v52.65h-9.62V90.49H456.11v23.79h-9.55Z"/><path class="cls-2" d="M186.49,147.63h8.45l7,37.24,6.57-37.24h8.64l-10.6,52.65h-9.42Z"/><path class="cls-2" d="M228.09,147.63h10.27l10.53,52.65H240l-2.08-12.16h-9.17l-2.14,12.16h-9ZM223.15,131h9L236,144h-5.07Zm13.72,51-3.58-22.1L229.72,182Z"/><path class="cls-2" d="M266.83,147.63h8.45l7,37.24,6.56-37.24h8.65l-10.6,52.65h-9.42Z"/><path class="cls-2" d="M302.52,147.63h22.1v6.76H312.07v15.14H322v6.7h-9.88v17.48h12.68v6.57H302.52ZM309.73,133h7.93l6,10.47h-6.43l-3.51-6.57-3.45,6.57h-6.37Zm-1.3,71.63h8.06v8.13h-8.06Z"/><path class="cls-2" d="M344.18,184.94l8.26-1.63c.26,6.24,1.75,10.27,6,10.27,3.05,0,4.35-2.08,4.35-4.94,0-4.55-2.34-7.08-5.78-10.07l-6.63-5.79c-3.77-3.25-6.11-6.89-6.11-12.74,0-8.32,5.2-13,13.58-13,9.88,0,12.68,6.63,13.2,14.3l-8.26,1.43c-.19-4.94-.91-8.64-5.13-8.64-2.86,0-4.42,2.14-4.42,4.94,0,3.57,1.49,5.52,4.29,7.93l6.56,5.78c4.29,3.71,7.87,8.32,7.87,15.28,0,7.6-5.33,12.93-13.2,12.93C349.12,201,344.57,195.4,344.18,184.94Z"/><path class="cls-2" d="M377.53,147.63H387v52.65h-9.49Z"/><path class="cls-2" d="M394.81,147.63h6.7l12.81,30v-30h7.93v52.65h-6.37L403,168.82v31.46h-8.2Z"/><path class="cls-2" d="M430.05,147.63h9.55v22h10.73v-22H460v52.65h-9.62V176.49H439.6v23.79h-9.55Z"/><path class="cls-2" d="M493.61,290.61a3.15,3.15,0,0,0-2.38-1H228a3.2,3.2,0,0,0-2.37,1,3.24,3.24,0,0,0-.66,2.49l44.22,267.44a3.09,3.09,0,0,0,3,2.58h54.27l3.71,43.56-22.84,0,53.14,53.14,53.27-53.25-22.83,0,3.7-43.49h55.23a3,3,0,0,0,3-2.62l41.37-267.4A3.15,3.15,0,0,0,493.61,290.61ZM391.89,504.72a42.26,42.26,0,0,1-31.41,10.95,42.24,42.24,0,0,1-31.43-10.95c-19.72-19.7-12.69-44.21-5.82-56.88,4.23-7.93,34.53-53.42,37.14-57.29v-.31l.11.15.11-.15v.31c2.54,3.87,32.88,49.36,37.12,57.29C404.58,460.51,411.59,485,391.89,504.72Zm83.49-157.84c-7.13-3.14-16.17-2-24.85,1.51-32.66,13.24-54.89,18-89.24,7.24-21.63-6.77-41.86-20.95-65.79-12.32-15.87,5.71-30.67,11.16-48.62,11l-10.36-53.15H482.84Z"/></g></svg>