<svg xmlns="http://www.w3.org/2000/svg" viewBox="0 0 720 720"><defs><style>.cls-1{fill:#3f7e44;}.cls-2{fill:#fff;}</style></defs><title>VN_SDG_icons_RGB outlines-01</title><g id="goal_background" data-name="goal background"><rect class="cls-1" x="-0.59" y="-0.59" width="721.18" height="721.18" transform="matrix(0, -1, 1, 0, -0.49, 719.51)"/></g><g id="ENG_text_graphics" data-name="ENG text &amp; graphics"><path class="cls-2" d="M51.12,88.93C47,91.14,35.31,94.37,31.23,96.41V76.86c5.44-2.21,20.57-9.52,25.67-15.13H77.47v137.7H51.12Z"/><path class="cls-2" d="M80,160.16V155.4H106.2V160c.17,13.43,2.55,19.72,11.22,19.72,8.84,0,10.71-6.8,10.71-19.89,0-13.77-3.23-21.59-15.3-21.93a29.18,29.18,0,0,0-4.59-.17V118.51h4.08c12.24,0,15.81-6.29,15.81-20.4,0-11-2.55-17.34-11.22-17.34S106.37,88.25,106.2,99v6.12H80V97.6c0-24.14,13.6-37.74,36.89-37.74,23.46,0,37.06,12.92,37.06,36.89,0,16.15-7.48,27.37-17.34,30.09,10,3.74,17.34,12.92,17.34,32.47,0,25-10,42.5-36.89,42.5C89.54,201.81,80,185.15,80,160.16Z"/><path class="cls-2" d="M231.45,61.63h9.65V83.21h8.37V61.63h9.65v52.65h-9.65V90.94H241.1v23.34h-9.65Z"/><path class="cls-2" d="M271.76,61.63h10.7l9.13,52.65H282.7l-1.76-11.57h-7.48l-1.82,11.57h-9.07Zm-4.39-17h9.07L280,57.73h-5.32ZM280,96.08l-2.87-21.19-2.81,21.19Z"/><path class="cls-2" d="M294.92,61.63h6.73L312.18,89V61.63h8v52.65h-6.5L303.17,85.16v29.12h-8.25Z"/><path class="cls-2" d="M326,61.63h9.65V83.21H344V61.63h9.66v52.65H344V90.94h-8.36v23.34H326Z"/><path class="cls-2" d="M372.79,89.77h-2.93V84.7h2.93V61.63h11.64c12.05,0,15.5,5.07,15.5,16.51V97.31c0,11.7-3.51,17-15.27,17H372.79Zm11.93,17c5.27,0,5.56-2.79,5.56-8.32V76.71c0-5.33-.53-7.54-5.62-7.54h-2.4V84.7h3v5.07h-3v17Z"/><path class="cls-2" d="M404.2,97.7V78.07c0-10.79,3.51-17.09,14-17.09s14,6.37,14,17.09v19.7c0,10.72-3.56,17.22-14,17.22S404.2,108.49,404.2,97.7Zm10.18-51.15h7.49l5.56,10.66h-6.32l-3-6.5-2.92,6.5h-6.26Zm8,53.82V75.47c0-3.64-.53-6.82-4.16-6.82S414,71.83,414,75.47v24.9c0,3.57.41,6.95,4.15,6.95S422.34,103.94,422.34,100.37Zm-8,18.33H422v8.64h-7.72Z"/><path class="cls-2" d="M437.14,61.63h6.72L454.39,89V61.63h8v52.65h-6.5L445.38,85.16v29.12h-8.24Z"/><path class="cls-2" d="M467.38,96.86V79.24C467.38,68,470.6,61,481.24,61c10.18,0,13.52,6,13.52,15.4v3.06H485.4V75.73c0-4.09-.29-7.08-4-7.08-3.92,0-4.15,3.7-4.15,7.6v23.4c0,4.36.76,7.67,4.44,7.67s4.57-3.44,4.57-8V93.74H481.6v-6.5h13.33v27h-6.31L488,109.6c-1.23,3.12-3.51,5.46-7.78,5.46C470.54,115.06,467.38,107.84,467.38,96.86Z"/><path class="cls-2" d="M229.05,147.63h8.37L243,184l5.26-36.4H257l-9,52.65h-9.95Z"/><path class="cls-2" d="M260.35,147.63H281V155H269.94v14h8.55v7.48h-8.55V193h11.18v7.28H260.35ZM267,132.55h7.49l5.56,10.66h-6.32l-3-6.5-2.92,6.5h-6.26Zm8.19-4.68H282l3.1,7.86h-4.8Z"/><path class="cls-2" d="M297.73,147.63h9.6v22.23l8.6-22.23h9.36l-8.9,23.66,9.6,29h-9.77l-7.31-23.53-1.58,2.86v20.67h-9.6Z"/><path class="cls-2" d="M328.68,147.63h9.65v21.58h8.37V147.63h9.65v52.65H346.7V176.94h-8.37v23.34h-9.65Z"/><path class="cls-2" d="M362.26,147.63h9.59v52.65h-9.59Zm5.55-17h9l-7.19,13.07h-5.38Z"/><path class="cls-2" d="M390.86,147.63h9.65v21.58h8.37V147.63h9.65v52.65h-9.65V176.94h-8.37v23.34h-9.65Z"/><path class="cls-2" d="M431.17,147.63h10.7L451,200.28h-8.89l-1.76-11.57h-7.48l-1.82,11.57H422Zm1.58-15.08h7.49l5.55,10.66h-6.31l-3-6.5-2.92,6.5h-6.26Zm-.12,72.15h7.72v8.64h-7.72Zm6.79-22.62-2.87-21.19-2.81,21.19Z"/><path class="cls-2" d="M453.63,183.64v-36h9.48v37.5c0,4,.41,8.06,4.21,8.06s4.21-4,4.21-8.06v-37.5h9.54v36c0,11.05-3,17.35-13.75,17.35S453.63,194.69,453.63,183.64Z"/><path class="cls-2" d="M631.58,451.81C612.5,425,526.19,317.82,365.48,317.6S118.16,424.3,99,451.09q-1.23,1.71-2.1,3c.58.87,1.27,1.86,2.09,3,19.1,26.82,105.39,134,266.13,134.2S612.42,484.57,631.57,457.8c.84-1.16,1.53-2.14,2.08-3-.55-.84-1.24-1.83-2.07-3M275.73,385.16c1.45-2.12,6.27-8.18,6.86-9,1.24-1.59,3.7-1.91,5.42-2.22s4,.64,4.25,1.92-.66,6.26-1.51,7.12c-2.36,2.44-8.5,5.88-11.88,5.34-2.61-.41-3.64-2.44-3.14-3.21M270,396.57c.25-.3.48-.55.58-.67,2-2.3,6.05-2.79,8.83-3.22s6.5.93,6.95,2.79-7,5.21-8.36,6.47c-3.87,3.56-9.94,10.81-13.48,11.58a4.21,4.21,0,0,1-2.89-.3A111.27,111.27,0,0,1,270,396.57m60,123.48c-2.19,8.56-4.73,11.64-6.9,14.33s-10.19,6.2-15.28,5.82-5.78-14-5.77-21c0-2.42-3.42,4.74-5.19-9.81-1.12-9.32-7.12,1-7.53-5.25s-3.4-5-6.54-8.85-7,.37-11.39,2.32-2.56,3-8.73,1c-.16-.05-.24-.09-.39-.15a111.55,111.55,0,0,1-8.74-43.59c0-3.78.21-7.49.57-11.17a7,7,0,0,1,.69-1c5.94-7,5.81-8.64,5.81-8.64l6.55-2.26a110,110,0,0,1,18.33,4.6c6.49,2.45,16.71,8,22.65,5.55,4.3-1.77,7.67-4.11,7.27-7.69-.48-4.49-4-5.56-8.3-2.54-1.58,1.11-4.93-6.77-7.57-6.38s3.25,9.27,1,9.64-6.74-9.25-7.51-10.81-4.23-5.42-7.36-2.48c-6.61,6.27-17.33,5.87-19.49,7.48-6.56,4.9-8.28-1.62-8.13-5.59.26-.91.53-1.83.82-2.72,2.15-2.36,9.83-3.13,12.47-1.37,2.89,1.94,5-.49,6.1-1.66s.75-3,0-4.55,1.45-2.7,2.95-3.09,6.51-3.89,8.5-5.05,12.36-2.4,17-.07a9,9,0,0,0,11.18-2.24,30,30,0,0,1,8.12-6.76c1.63-.75-4-6-8.61-.29s-7,6.2-9.17,6.2-15.09-3.25-16.68-7.34,4-7.13,8.83-9.43,17.82-2.22,21.16-3c6.78-1.48,15.46-4.88,19.83-1.9s-18.26,8.05-10.84,12.07c2.64,1.45,14.6-6.86,18.69-9,9.64-4.95-9.32-6.62-6.85-16.71,2.8-11.41-23.25-7-36.24-6.08A111.94,111.94,0,0,1,474.38,429a18.6,18.6,0,0,1-.55,5.18c-1,4-8.68,7.49-13.12,1-1.12-1.64-5.92-6.18-5.77,1.57s7.53,8.57.37,13.22-8.47,3.52-11.78,4.69-6.51,9.15-5.73,13.43,11,16,3.42,15.47c-1.78-.14-15.15-9.29-17.35-15.17-2.32-6.19-4.85-12.25-6.65-16.92s-6.54-5.84-10.55-3.11,1.11,5.45-1.77,11.28-4.91,11-9.11,6.2c-10.91-12.54-26.8-6.39-29.27-20.32-1.34-7.56-7.84-6.84-13.28-11.13s-8.5-6.58-9.42-3.5c-.82,2.7,17.09,16.93,18.36,20.58,1.89,5.41-5.38,10.17-10.71,11.44s-7.62-3-12.83-8.43-7.49-9.32-7.86-5.06c-.53,6.16,4.94,15.22,10.25,18.61,4.52,2.87,9.6,4.18,8.12,8.83s0,2-5.11,7-6.06,6.67-5.7,13.63-1.46,7.4-2.56,13.21-3.62.78-5.82,9.3m120.16-44.48c3.77-.3,9.41,4.92,7.2,6.92s-7.85,1.25-10.67-1,1.78-5.82,3.47-5.95m-4.75-3.45c-1.21-.45-2.27-1.6-3.18-4.35s1.4-4.31,3.66-3.2,5.27,4.6,5.27,6.43-4.52,1.61-5.75,1.12M396,471.86c-2.22,2-7.88,1.24-10.71-1s1.8-5.82,3.48-5.95c3.77-.33,9.42,4.94,7.23,6.93M350.2,494c-1.54,2.52-5.78,21.34-8.6,19.14s1.17-21.83,2-23.32c4.43-8.11,14-7.7,6.61,4.18m15.12,73a112.17,112.17,0,0,1-31.46-4.56,4.61,4.61,0,0,1-1.35-5.47c3.48-9,13.8-12.55,21.95-13.32,18.15-1.75,42,11.84,45.8,9.66s11.49-12.15,22.76-11.72c7.68.31,7.62,1.6,10.2,2.57A111.54,111.54,0,0,1,365.32,567m79-32.49a19.5,19.5,0,0,1-3.51-1.3c-6.11-3.12-5.38,1.85-8.39.75s3.41-8.09-5.63-2.2-6.56-.92-10.47-10.89S420.87,499.55,428,497c9.73-3.51,15.77-4.22,20.33-5.34,13.46-3.34,16.31-11.32,18.75-6.46.46.91.9,1.78,1.3,2.59a17.62,17.62,0,0,1,1.72,7.3,112,112,0,0,1-25.72,39.46m30.75-56.48c-3-.83-15.55-18.22-5.6-29.65,1.66-1.88-3.32-7.41-2-7.52,5.44-.42,8.33,3,9.75,7.83.1,2.14.19,4.3.18,6.49a113.17,113.17,0,0,1-2.37,22.85"/></g></svg>