<svg xmlns="http://www.w3.org/2000/svg" viewBox="0 0 720 720"><defs><style>.cls-1{fill:#a21942;}.cls-2{fill:#fff;}</style></defs><title>VN_SDG_icons_RGB outlines-01</title><g id="goal_background" data-name="goal background"><rect class="cls-1" x="-1.08" y="-1.08" width="722.16" height="722.16"/></g><g id="ENG_text_graphics" data-name="ENG text &amp; graphics"><path class="cls-2" d="M55.12,159c.17-14.79,5.44-26.52,16.15-32-7.48-5.44-13.77-15-14.11-30.26C56.82,74,68.72,60,92,60s35,14.11,34.51,36.72c-.34,15.47-6.29,25-13.77,30.26,10.54,5.44,16,17.17,16.15,32,.51,25.16-9.52,42.5-36.89,42.5C64.81,201.47,55,184.13,55.12,159Zm47.94,1.7c.17-11-1.19-22.1-11-22.1-9.69,0-11.22,11.05-11.22,22.1C80.79,170,82,181.92,92,181.92S103.06,169.85,103.06,160.67ZM101.7,95.9c0-9.52-3.06-16.15-9.69-16.15-6.8,0-10,6.63-10,16.15,0,13.26,2.89,21.25,10,21.25C99,117.15,101.7,109.16,101.7,95.9Z"/><path class="cls-2" d="M162.1,97.44V78.66c0-10.79,3.45-17.62,15-17.62,10.79,0,14.23,6,14.23,15.15v4.42h-9.23V76.06c0-4.42-.06-8-4.94-8s-5.39,3.77-5.39,8.58V99.46c0,5.72,1.17,8.45,5.39,8.45,4.75,0,4.94-3.71,4.94-8.39V94.78h9.23V99c0,9.3-3.12,16-14.23,16C165.55,115,162.1,107.71,162.1,97.44Z"/><path class="cls-2" d="M195.51,97.77V78c0-10.66,3.9-17,15.21-17s15.15,6.31,15.15,17V97.77c0,10.59-3.9,17.22-15.15,17.22S195.51,108.43,195.51,97.77Zm11.18-52.26h7.93l6,12H214l-3.38-7.8-3.32,7.8h-6.5ZM216.12,100V75.8c0-4.42-.72-7.74-5.4-7.74s-5.46,3.32-5.46,7.74V100c0,4.36.72,7.87,5.46,7.87S216.12,104.4,216.12,100Z"/><path class="cls-2" d="M231.26,61.63H238l12.8,30v-30h7.93v52.65h-6.37L239.45,82.82v31.46h-8.19Z"/><path class="cls-2" d="M264.15,96.92V79.24c0-11.31,3.45-18.2,15-18.2,10.79,0,14.56,5.59,14.56,15.34v2.73h-9.17v-3c0-5.07-.52-8.06-5.26-8.06-5.07,0-5.46,4.1-5.46,8.91V99c0,5.46,1,8.91,5.72,8.91s5.78-3.64,5.78-9.36V93.61h-5.65v-6H294v26.72h-6.24l-.65-5.14c-1.43,3.38-4,5.85-8.91,5.85C267.79,115,264.15,108,264.15,96.92Z"/><path class="cls-2" d="M311.28,61.63h8.45l6.95,37.24,6.57-37.24h8.64L331.3,114.28h-9.43Z"/><path class="cls-2" d="M345.85,61.63h9.5v52.65h-9.5Z"/><path class="cls-2" d="M361.78,61.63h22.1v6.76H371.33V83.53h9.89v6.7h-9.89v17.48H384v6.57H361.78ZM369,47h7.94l6,10.47h-6.44L373,50.9l-3.45,6.57h-6.37Zm-1.3,71.63h8.06v8.13h-8.06Z"/><path class="cls-2" d="M387.06,97.44V78.66c0-10.79,3.45-17.62,15-17.62,10.79,0,14.23,6,14.23,15.15v4.42h-9.23V76.06c0-4.42-.06-8-4.94-8s-5.39,3.77-5.39,8.58V99.46c0,5.72,1.17,8.45,5.39,8.45,4.75,0,4.94-3.71,4.94-8.39V94.78h9.23V99c0,9.3-3.12,16-14.23,16C390.51,115,387.06,107.71,387.06,97.44Z"/><path class="cls-2" d="M440.69,68.71H432.3V61.63h26.2v7.08h-8.19v45.57h-9.62Z"/><path class="cls-2" d="M460.51,97.77V78c0-10.66,3.9-17,15.21-17s15.15,6.31,15.15,17V97.77c0,10.59-3.9,17.22-15.15,17.22S460.51,108.43,460.51,97.77ZM471.69,47h7.93l6,10.47h-6.43l-3.51-6.57-3.45,6.57h-6.37Zm9.43,53V75.8c0-4.42-.72-7.74-5.4-7.74s-5.46,3.32-5.46,7.74V100c0,4.36.72,7.87,5.46,7.87S481.12,104.4,481.12,100Zm6.56-57.52h7l-5.52,7.73h-4.94Z"/><path class="cls-2" d="M501.27,68.71h-8.39V61.63h26.2v7.08h-8.19v45.57h-9.62Z"/><path class="cls-2" d="M533.83,61.63h8.45l7,37.24,6.56-37.24h8.65l-10.6,52.65h-9.42Z"/><path class="cls-2" d="M574.07,61.63h10.27l10.53,52.65H586l-2.08-12.16h-9.16l-2.15,12.16h-9Zm-5-16.64h9l3.83,13h-5.07Zm13.72,51-3.57-22.1L575.69,96Z"/><path class="cls-2" d="M168.21,154.71h-8.38v-7.08H186v7.08h-8.19v45.57h-9.62Z"/><path class="cls-2" d="M195.71,147.63H206l10.53,52.65H207.6l-2.08-12.16h-9.16l-2.15,12.16h-9ZM191.55,134h5c.07,3.18,1.24,4.81,4.36,4.81s4.35-1.76,4.35-4.81h5.07c0,5.78-3.18,9.49-9.42,9.49S191.55,139.76,191.55,134Zm12.93,48-3.57-22.1L197.33,182Z"/><path class="cls-2" d="M220.08,147.63h6.7l12.8,30v-30h7.93v52.65h-6.37l-12.87-31.46v31.46h-8.19Z"/><path class="cls-2" d="M253,182.92V165.24c0-11.31,3.45-18.2,15-18.2,10.79,0,14.56,5.59,14.56,15.34v2.73h-9.17v-3c0-5.07-.52-8.06-5.26-8.06-5.07,0-5.46,4.1-5.46,8.91v22c0,5.46,1,8.91,5.72,8.91s5.78-3.64,5.78-9.36v-4.94h-5.65v-6.05h14.3v26.72h-6.24l-.65-5.14c-1.43,3.38-4,5.85-8.91,5.85C256.61,201,253,194,253,182.92Z"/><path class="cls-2" d="M307.83,154.71h-8.38v-7.08h26.19v7.08h-8.19v45.57h-9.62Z"/><path class="cls-2" d="M328.76,147.63h12.67c10.54,0,16.52,3.38,16.52,14,0,6.31-1.56,10.73-6.5,12.74l7.34,25.94h-9.62l-6.3-24.12h-4.56v24.12h-9.55Zm12.61,22.55c5.53,0,7.54-2.4,7.54-8.06,0-5.33-1.5-7.93-7-7.93h-3.58v16Z"/><path class="cls-2" d="M392.59,150.55v32.7c0,11.05-3,17.74-14.82,17.74S363,194.3,363,183.25V147.63h9.36v36.72c0,5,.58,9.49,5.46,9.49s5.53-4.48,5.53-9.49V147.63h4c2.6,0,3.51-1.69,3.51-5.2h6.44C397.21,146.52,395.52,149.19,392.59,150.55Z"/><path class="cls-2" d="M428,164v19.76c0,10.59-3.9,17.22-15.15,17.22s-15.21-6.56-15.21-17.22V164c0-10.66,3.9-17,15.21-17a24.88,24.88,0,0,1,5.14.52c2.08-.26,2.8-1.95,2.8-5.13h6.43c0,3.7-1.43,6.3-3.9,7.73C426.65,153,428,157.77,428,164Zm-17.42-29.25a13.12,13.12,0,0,0-3.64.52v-4a22.87,22.87,0,0,1,6-.78c4,0,7.54,1.82,7.54,6.11s-3.38,6.11-7.54,7.6l-2.93-3.05c2.54-1.11,4.42-2.08,4.42-3.9S412.74,134.76,410.53,134.76Zm7.67,27c0-4.42-.72-7.74-5.4-7.74s-5.46,3.32-5.46,7.74V186c0,4.36.72,7.87,5.46,7.87s5.4-3.51,5.4-7.87Z"/><path class="cls-2" d="M433.34,147.63H440l12.8,30v-30h7.93v52.65H454.4l-12.87-31.46v31.46h-8.19Z"/><path class="cls-2" d="M466.23,182.92V165.24c0-11.31,3.45-18.2,15-18.2,10.79,0,14.56,5.59,14.56,15.34v2.73h-9.17v-3c0-5.07-.52-8.06-5.26-8.06-5.07,0-5.46,4.1-5.46,8.91v22c0,5.46,1,8.91,5.72,8.91s5.78-3.64,5.78-9.36v-4.94h-5.65v-6.05h14.3v26.72h-6.24l-.65-5.14c-1.43,3.38-4,5.85-8.91,5.85C469.87,201,466.23,194,466.23,182.92Z"/><path class="cls-2" d="M165.83,229.63h9.55v23.14l10.47-23.14H195l-10.07,23.46,11.11,29.19H186.5l-8.78-23.92-2.34,4v20h-9.55Z"/><path class="cls-2" d="M199,229.63h9.49v52.65H199Z"/><path class="cls-2" d="M214.9,229.63h6.7l12.8,30v-30h7.93v52.65H236l-12.87-31.46v31.46H214.9Z"/><path class="cls-2" d="M248.77,229.63h9.55v22h10.73v-22h9.62v52.65h-9.62V258.49H258.32v23.79h-9.55Z"/><path class="cls-2" d="M304.41,236.71H296v-7.08h26.2v7.08H314v45.57h-9.62Z"/><path class="cls-2" d="M325.34,229.63h22.1v6.76H334.89v15.14h9.88v6.7h-9.88v17.48h12.68v6.57H325.34ZM332.55,215h7.93l6,10.47H340l-3.51-6.57-3.45,6.57H326.7Zm16-4.48h7L350,218.25H345.1Z"/><path class="cls-2" d="M497.66,354.18l-73.74,70.15c-2.79,2.77-4.21,4.8-4.21,10.53v196.6a4.2,4.2,0,0,0,4.21,4.19h76.17a4.19,4.19,0,0,0,4.19-4.19V356c0-2.32-1.81-6.56-6.62-1.77"/><path class="cls-2" d="M285.22,445.57l-73.75,70.14c-2.77,2.77-4.2,4.8-4.2,10.52V631.46a4.21,4.21,0,0,0,4.2,4.19h76.18a4.2,4.2,0,0,0,4.2-4.19V447.33c0-2.32-1.83-6.57-6.63-1.76"/><path class="cls-2" d="M531.17,269.11a2.07,2.07,0,0,0-.62-1.59,2.21,2.21,0,0,0-1.37-.6l-.4,0-.61,0-56.46,12.73-1,.11a2.25,2.25,0,0,0-1.11.58,2.15,2.15,0,0,0,0,3l.64.64L483.12,297l-127.94,128-59.1-59.1a1.68,1.68,0,0,0-2.4,0l-16,16a0,0,0,0,0,0,0l-94.72,94.71a1.7,1.7,0,0,0,0,2.4L199,495a1.67,1.67,0,0,0,2.39,0l93.54-93.52,42.89,42.88a.8.8,0,0,0,.13.21l16,16a1.68,1.68,0,0,0,2.4,0L501.56,315.41l13.54,13.53a2.1,2.1,0,0,0,3,0,2.07,2.07,0,0,0,.62-1.39v-.18l12.4-57.64Z"/><path class="cls-2" d="M391.86,457.88l-35.68,36a1.71,1.71,0,0,1-2.3-.09l-32.32-32.95c-5.92-5.89-7.2-1.11-7.2,1.21V631.45a4.19,4.19,0,0,0,4.18,4.2h76.19a4.21,4.21,0,0,0,4.19-4.2V459.21c0-2.32-1.83-6.57-7.06-1.33"/></g></svg>