<svg xmlns="http://www.w3.org/2000/svg" viewBox="0 0 720 720"><defs><style>.cls-1{fill:#bf8b2e;}.cls-2{fill:#fff;}</style></defs><title>VN_SDG_icons_RGB outlines-01</title><g id="goal_background" data-name="goal background"><rect class="cls-1" x="-1.08" y="-1.08" width="722.16" height="722.16"/></g><g id="ENG_text_graphics" data-name="ENG text &amp; graphics"><path class="cls-2" d="M49.12,88.93C45,91.14,33.31,94.37,29.23,96.41V76.86c5.44-2.21,20.57-9.52,25.67-15.13H75.47v137.7H49.12Z"/><path class="cls-2" d="M78.53,180.9,112,129.39c7.31-11.39,14.62-20.91,14.62-33.66,0-8.84-3.4-13.6-10-13.6-10,0-12.41,9.18-12.41,20.4v6.29H78.53V102c0-24.31,10.54-42,37.57-42,24.14,0,36.55,13.43,36.55,36.21,0,16.83-8.67,28.56-18,42.67l-26.52,39.78h40.8v20.74H78.53Z"/><path class="cls-2" d="M234,68.71h-8.39V61.63h26.2v7.08h-8.19v45.57H234Z"/><path class="cls-2" d="M254.93,61.63h9.49v52.65h-9.49Z"/><path class="cls-2" d="M270.59,61.63h22.1v6.76H280.14V83.53H290v6.7h-9.89v17.48h12.68v6.57H270.59Zm7.22-16.12h7.93l6,12h-6.57l-3.38-7.8-3.31,7.8H272Z"/><path class="cls-2" d="M296.07,97.25V61.63h9.36V98.35c0,5,.58,9.49,5.46,9.49s5.52-4.48,5.52-9.49V61.63h9.3V97.25c0,11-3.06,17.74-14.82,17.74S296.07,108.3,296.07,97.25Z"/><path class="cls-2" d="M350.41,68.71H342V61.63h26.2v7.08H360v45.57h-9.62Z"/><path class="cls-2" d="M371.21,61.63h9.55v22h10.73v-22h9.62v52.65h-9.62V90.49H380.76v23.79h-9.55Z"/><path class="cls-2" d="M406.83,97.25V61.63h9.36V98.35c0,5,.58,9.49,5.46,9.49s5.52-4.48,5.52-9.49V61.63h9.3V97.25c0,11-3.06,17.74-14.82,17.74S406.83,108.3,406.83,97.25Zm10.85,21.38h8.06v8.13h-8.06Z"/><path class="cls-2" d="M226.26,147.63h8.45l7,37.24,6.56-37.24h8.65l-10.6,52.65h-9.42Z"/><path class="cls-2" d="M266.24,147.63h10.27L287,200.28h-8.91l-2.08-12.16h-9.16l-2.15,12.16h-9ZM261.3,131h9l3.83,13H269ZM275,182l-3.57-22.1L267.86,182Z"/><path class="cls-2" d="M302.89,184.94l8.26-1.63c.26,6.24,1.75,10.27,6,10.27,3.05,0,4.35-2.08,4.35-4.94,0-4.55-2.34-7.08-5.78-10.07l-6.63-5.79C305.3,169.53,303,165.89,303,160c0-8.32,5.2-13,13.58-13,9.89,0,12.68,6.63,13.2,14.3l-8.26,1.43c-.19-4.94-.91-8.64-5.13-8.64-2.86,0-4.42,2.14-4.42,4.94,0,3.57,1.49,5.52,4.29,7.93l6.56,5.78c4.3,3.71,7.87,8.32,7.87,15.28,0,7.6-5.33,12.93-13.2,12.93C307.83,201,303.28,195.4,302.89,184.94Z"/><path class="cls-2" d="M342,147.63h10.27l10.53,52.65h-8.91l-2.08-12.16h-9.16l-2.15,12.16h-9Zm2.34-6.5c2.53-1.11,4.42-2.08,4.42-3.9s-1.63-2.47-3.84-2.47a13.12,13.12,0,0,0-3.64.52v-4a22.87,22.87,0,0,1,6-.78c4,0,7.54,1.82,7.54,6.11s-3.38,6.11-7.54,7.6ZM350.73,182l-3.57-22.1L343.58,182Z"/><path class="cls-2" d="M366.07,147.63h6.7l12.8,30v-30h7.93v52.65h-6.37l-12.87-31.46v31.46h-8.19Z"/><path class="cls-2" d="M420.67,172.33l-10.27-24.7h9L426.2,164l6-16.38h8.25l-10.07,26.52,10.85,26.13h-8.9l-7.48-17.75-6.5,17.75h-8.25Z"/><path class="cls-2" d="M443.49,183.25V147.63h9.36v36.72c0,5,.58,9.49,5.46,9.49s5.52-4.48,5.52-9.49V147.63h9.3v35.62c0,11.05-3.06,17.74-14.82,17.74S443.49,194.3,443.49,183.25Z"/><path class="cls-2" d="M486.32,147.63h10.27l10.53,52.65h-8.9l-2.08-12.16H487l-2.14,12.16h-9ZM487.49,133h7.93l6,10.47H495l-3.51-6.57L488,143.47h-6.37Zm7.61,49-3.58-22.1L488,182Zm8.38-53.49h7L505,136.25H500Z"/><path class="cls-2" d="M513.23,154.71h-8.38v-7.08H531v7.08h-8.19v45.57h-9.62Z"/><path class="cls-2" d="M227.89,269.44V250.66c0-10.79,3.44-17.62,15-17.62,10.79,0,14.24,6,14.24,15.15v4.42h-9.23v-4.55c0-4.42-.07-8-4.94-8s-5.4,3.77-5.4,8.58v22.82c0,5.72,1.17,8.45,5.4,8.45,4.74,0,4.94-3.71,4.94-8.39v-4.74h9.23V271c0,9.3-3.12,16-14.24,16C231.33,287,227.89,279.71,227.89,269.44Z"/><path class="cls-2" d="M261,269.77V250c0-10.66,3.9-17,15.21-17s15.14,6.31,15.14,17v19.76c0,10.59-3.9,17.22-15.14,17.22S261,280.43,261,269.77Zm20.6,2.27V247.8c0-4.42-.71-7.74-5.39-7.74s-5.46,3.32-5.46,7.74V272c0,4.36.71,7.87,5.46,7.87S281.64,276.4,281.64,272ZM277.48,217h9l-7.73,13h-5.14Z"/><path class="cls-2" d="M315.64,240.71h-8.39v-7.08h26.2v7.08h-8.19v45.57h-9.62Z"/><path class="cls-2" d="M336.3,233.63H349c10.53,0,16.51,3.38,16.51,14,0,6.31-1.56,10.73-6.5,12.74l7.34,25.94h-9.62l-6.3-24.12h-4.55v24.12H336.3Zm12.61,22.55c5.53,0,7.54-2.4,7.54-8.06,0-5.33-1.49-7.93-7-7.93h-3.57v16Z"/><path class="cls-2" d="M378.68,233.63H389l10.53,52.65h-8.9l-2.08-12.16h-9.17l-2.14,12.16h-9ZM387.46,268l-3.58-22.1L380.31,268Zm-2.34-51h9l-7.74,13h-5.13Z"/><path class="cls-2" d="M401.43,269.44V250.66c0-10.79,3.45-17.62,15-17.62,10.79,0,14.23,6,14.23,15.15v4.42h-9.23v-4.55c0-4.42-.06-8-4.94-8s-5.39,3.77-5.39,8.58v22.82c0,5.72,1.17,8.45,5.39,8.45,4.75,0,4.94-3.71,4.94-8.39v-4.74h9.23V271c0,9.3-3.12,16-14.23,16C404.88,287,401.43,279.71,401.43,269.44Z"/><path class="cls-2" d="M435.56,233.63h9.55v22h10.73v-22h9.62v52.65h-9.62V262.49H445.11v23.79h-9.55Z"/><path class="cls-2" d="M485.41,233.63h6.7l12.8,30v-30h7.93v52.65h-6.37L493.6,254.82v31.46h-8.19Z"/><path class="cls-2" d="M519,233.63h9.55v22H539.3v-22h9.62v52.65H539.3V262.49H528.57v23.79H519Z"/><path class="cls-2" d="M555.29,233.63h9.49v52.65h-9.49Z"/><path class="cls-2" d="M571,233.63h22.1v6.76H580.51v15.14h9.88v6.7h-9.88v17.48h12.67v6.57H571ZM578.17,219h7.93l6,10.47h-6.44l-3.51-6.57-3.44,6.57h-6.37Zm-1.3,71.63h8.06v8.13h-8.06Z"/><path class="cls-2" d="M597.6,233.63h9.95L615,270.09l7.74-36.46h9.68l1,52.65h-7.15l-.78-36.6L618,286.28h-5.78l-7.61-36.73-.71,36.73h-7.22Z"/><path class="cls-2" d="M544.11,373.67c-32-25.3-74.49-25.82-90-22.12l-1.8.42c-17.95,4.24-46.47,11.25-79.85,52.68-.19.23-.38.46-.56.7l-.42.51a2.77,2.77,0,0,0-.56,1.61,2.88,2.88,0,0,0,.36,1.39l.78,1.28c4.19,7,9.47,16,13.94,24.34a1.92,1.92,0,0,1,.12.25,2.88,2.88,0,0,0,2.55,1.57,2.82,2.82,0,0,0,2-.8c.21-.27.42-.56.61-.85,29.63-41,52.92-46.63,68.68-50.34l1.89-.44c8.18-2,39.28-1.85,61.73,15.88,17.52,13.83,26.42,35.84,26.42,65.41,0,49.61-24.13,69-44.38,76.56-31.36,11.73-61.44-4-61.66-4.07l-1.35-.65c-17.23-7.48-42.94-23-67.18-71.72C326.52,367.19,285.67,358,258.64,351.83l-1.45-.32c-12.31-2.79-55.06-4.77-88.66,22.05-17.56,14-38.47,41.24-38.47,91.41,0,30.56,6.28,50.75,22.42,72,3.54,4.84,39.71,51.31,109.64,37.9,11.19-2.14,26.36-7.48,43-20l15.39,13.88a2.53,2.53,0,0,0,3.53-.17,2.37,2.37,0,0,0,.62-1.67v-.21l11.1-68.3v-.76a2.49,2.49,0,0,0-.82-1.82,2.32,2.32,0,0,0-1.63-.61l-.48,0-.72.08-65.42,18.31-1.19.2a2.2,2.2,0,0,0-1.25.73,2.48,2.48,0,0,0,.18,3.54l.77.71,14.66,13.24c-9.47,6.13-17.72,8.94-24,10.16-50.6,9.65-75.58-23.48-76.53-24.78L179,517c-11.76-15.43-15.73-28.55-15.73-52,0-29.66,8.74-51.69,26-65.45,21.88-17.46,52.06-17.56,60.58-15.62l1.47.33c22.15,5,52.51,11.88,94.31,95.86,21.72,43.6,48.91,72.11,83.14,87.14a120.9,120.9,0,0,0,52.11,12.08,103.71,103.71,0,0,0,36.3-6.44c19.84-7.4,66-32.7,66-107.71,0-50.13-21.23-77.42-39-91.49"/></g></svg>