<svg xmlns="http://www.w3.org/2000/svg" viewBox="0 0 720 720"><defs><style>.cls-1{fill:#dda83a;}.cls-2{fill:#fff;}</style></defs><title>VN_SDG_icons_RGB outlines-01</title><g id="goal_background" data-name="goal background"><rect class="cls-1" x="-1.08" y="-1.08" width="722.16" height="722.16"/></g><g id="ENG_text_graphics" data-name="ENG text &amp; graphics"><path class="cls-2" d="M55.12,180.9l33.49-51.51c7.31-11.39,14.62-20.91,14.62-33.66,0-8.84-3.4-13.6-10-13.6-10,0-12.41,9.18-12.41,20.4v6.29H55.12V102c0-24.31,10.54-42,37.57-42,24.14,0,36.55,13.43,36.55,36.21,0,16.83-8.67,28.56-18,42.67L84.7,178.69h40.8v20.74H55.12Z"/><path class="cls-2" d="M189,61.63h9.56V84.77L209,61.63h9.17L208.07,85.09l11.12,29.19h-9.56l-8.77-23.92-2.34,4v20H189Z"/><path class="cls-2" d="M223.35,61.63h9.55v22h10.73v-22h9.62v52.65h-9.62V90.49H232.9v23.79h-9.55Z"/><path class="cls-2" d="M260.14,97.77V78c0-10.66,3.9-17,15.21-17s15.14,6.31,15.14,17V97.77c0,10.59-3.9,17.22-15.14,17.22S260.14,108.43,260.14,97.77Zm11.18-52.26h7.93l6,12h-6.57l-3.38-7.8L272,57.47h-6.5ZM280.74,100V75.8c0-4.42-.71-7.74-5.39-7.74s-5.46,3.32-5.46,7.74V100c0,4.36.71,7.87,5.46,7.87S280.74,104.4,280.74,100Z"/><path class="cls-2" d="M297.25,61.63H304l12.8,30v-30h7.93v52.65h-6.37L305.44,82.82v31.46h-8.19Z"/><path class="cls-2" d="M331.51,96.92V79.24c0-11.31,3.44-18.2,15-18.2,10.79,0,14.56,5.59,14.56,15.34v2.73h-9.16v-3c0-5.07-.52-8.06-5.27-8.06-5.07,0-5.46,4.1-5.46,8.91V99c0,5.46,1,8.91,5.72,8.91s5.79-3.64,5.79-9.36V93.61H347v-6h14.3v26.72H355.1l-.65-5.14a8.87,8.87,0,0,1-8.9,5.85C335.15,115,331.51,108,331.51,96.92Z"/><path class="cls-2" d="M383,97.44V78.66C383,67.87,386.43,61,398,61c10.79,0,14.24,6,14.24,15.15v4.42H403V76.06c0-4.42-.07-8-4.94-8s-5.4,3.77-5.4,8.58V99.46c0,5.72,1.17,8.45,5.4,8.45,4.74,0,4.94-3.71,4.94-8.39V94.78h9.23V99c0,9.3-3.12,16-14.24,16C386.43,115,383,107.71,383,97.44Z"/><path class="cls-2" d="M417.76,97.77V78c0-10.66,3.9-17,15.21-17s15.15,6.31,15.15,17V97.77c0,10.59-3.9,17.22-15.15,17.22S417.76,108.43,417.76,97.77ZM422.83,45h9l3.84,13h-5.07ZM438.37,100V75.8c0-4.42-.72-7.74-5.4-7.74s-5.46,3.32-5.46,7.74V100c0,4.36.72,7.87,5.46,7.87S438.37,104.4,438.37,100Z"/><path class="cls-2" d="M454.88,61.63h6.69l12.81,30v-30h7.93v52.65h-6.37L463.07,82.82v31.46h-8.19Z"/><path class="cls-2" d="M189,147.63h6.7l12.8,30v-30h7.93v52.65H210l-12.87-31.46v31.46H189Z"/><path class="cls-2" d="M231.93,147.63H242.2l10.53,52.65h-8.91l-2.08-12.16h-9.16l-2.15,12.16h-9Zm1.1,57h8.06v8.13H233ZM240.7,182l-3.57-22.1L233.55,182Z"/><path class="cls-2" d="M257.67,147.63h6.69l12.81,30v-30h7.93v52.65h-6.37l-12.87-31.46v31.46h-8.19Z"/><path class="cls-2" d="M308.5,175.51h-3.25V170.7h3.25V147.63h12.41c12.81,0,16.64,5.13,16.64,16.38v19.17c0,11.57-4,17.1-16.31,17.1H308.5Zm12.61,18.07c6.63,0,6.82-3.51,6.82-10.07V163.36c0-6.31-.65-8.91-6.95-8.91h-3.06V170.7h3.51v4.81h-3.51v18.07Z"/><path class="cls-2" d="M343.47,183.77V164c0-10.66,3.9-17,15.21-17s15.14,6.31,15.14,17v19.76c0,10.59-3.9,17.22-15.14,17.22S343.47,194.43,343.47,183.77Zm20.6,2.27V161.8c0-4.42-.71-7.74-5.39-7.74s-5.46,3.32-5.46,7.74V186c0,4.36.71,7.87,5.46,7.87S364.07,190.4,364.07,186Zm-4.16-55h9l-7.73,13H356Z"/><path class="cls-2" d="M380.84,147.63h9.49v52.65h-9.49Z"/><path class="cls-2" d="M286.64,613.72v10.2a1.57,1.57,0,0,0,0,.23,2,2,0,0,0,0,.24,4.79,4.79,0,0,0,4.7,4.58l.09,0,.12,0H411.22l.11,0,.1,0a4.81,4.81,0,0,0,4.72-4.79l0,0a.07.07,0,0,1,0,0V612.57C483.52,590.48,534,535.88,545.08,469.34c0-.14,0-.27.07-.39a4,4,0,0,0,.07-.67,4.83,4.83,0,0,0-4.84-4.84H159a4.83,4.83,0,0,0-4.85,4.84l.25,2.17C166,537.63,217.88,592.53,286.64,613.72"/><path class="cls-2" d="M416,300.65c-1.57,2.24-38.42,55.29.82,98.19,18,19.69,16.44,37.06,11.3,48.79h25.17c5.1-17.32,3-39.05-17.44-61.38-28.91-31.61.37-74.33.81-75,3.45-4.88,1.6-11.16-4.08-14.09s-13.11-1.36-16.58,3.48"/><path class="cls-2" d="M352.29,447.63h25.18c5.09-17.32,3-39-17.46-61.38-28.93-31.61.34-74.32.8-75,3.43-4.85,1.62-11.12-4.09-14.06s-13.11-1.36-16.56,3.48c-1.58,2.23-38.46,55.29.82,98.19,18,19.69,16.43,37.07,11.31,48.79"/><path class="cls-2" d="M264.27,300.65c-1.59,2.24-38.44,55.29.81,98.19,18,19.7,16.45,37.07,11.32,48.79h25.18c5.09-17.31,3-39-17.47-61.38-28.93-31.61.36-74.33.82-75,3.42-4.86,1.6-11.14-4.11-14.07s-13.1-1.37-16.55,3.48"/></g></svg>