<svg xmlns="http://www.w3.org/2000/svg" viewBox="0 0 720 720"><defs><style>.cls-1{fill:#fcc30b;}.cls-2{fill:#fff;}</style></defs><title>VN_SDG_icons_RGB outlines-01</title><g id="goal_background" data-name="goal background"><rect class="cls-1" x="-1.08" y="-1.08" width="722.16" height="722.16"/></g><g id="ENG_text_graphics" data-name="ENG text &amp; graphics"><path class="cls-2" d="M89.12,81.79H51.72V61.73h63.07V78.9L85.72,199.43H60.22Z"/><path class="cls-2" d="M148.94,61.63h6.69l12.81,30v-30h7.93v52.65H170L157.13,82.82v31.46h-8.19Z"/><path class="cls-2" d="M190.93,61.63H201.2l10.53,52.65h-8.91l-2.08-12.16h-9.16l-2.15,12.16h-9ZM186.77,48h5c.07,3.18,1.24,4.81,4.36,4.81S200.48,51,200.48,48h5.07c0,5.78-3.18,9.49-9.42,9.49S186.77,53.76,186.77,48ZM199.7,96l-3.57-22.1L192.55,96Z"/><path class="cls-2" d="M215.69,61.63h6.7l12.8,30v-30h7.93v52.65h-6.37L223.88,82.82v31.46h-8.19Z"/><path class="cls-2" d="M249,96.92V79.24c0-11.31,3.45-18.2,15-18.2,10.79,0,14.56,5.59,14.56,15.34v2.73h-9.17v-3c0-5.07-.52-8.06-5.26-8.06-5.07,0-5.46,4.1-5.46,8.91V99c0,5.46,1,8.91,5.72,8.91s5.78-3.64,5.78-9.36V93.61h-5.65v-6h14.3v26.72h-6.24l-.65-5.14c-1.43,3.38-4,5.85-8.91,5.85C252.61,115,249,108,249,96.92Z"/><path class="cls-2" d="M299.35,61.63h9.55v46.08h12.81v6.57H299.35Z"/><path class="cls-2" d="M354.14,64.55v32.7c0,11-3.05,17.74-14.82,17.74S324.5,108.3,324.5,97.25V61.63h9.36V98.35c0,5,.59,9.49,5.46,9.49s5.53-4.48,5.53-9.49V61.63h4c2.6,0,3.51-1.69,3.51-5.2h6.44C358.76,60.52,357.07,63.19,354.14,64.55Z"/><path class="cls-2" d="M389.89,78V97.77c0,10.59-3.9,17.22-15.14,17.22s-15.21-6.56-15.21-17.22V78c0-10.66,3.9-17,15.21-17a24.78,24.78,0,0,1,5.13.52c2.08-.26,2.8-2,2.8-5.13h6.43c0,3.7-1.43,6.3-3.9,7.73C388.59,67,389.89,71.77,389.89,78Zm-9.75-2.21c0-4.42-.71-7.74-5.39-7.74s-5.46,3.32-5.46,7.74V100c0,4.36.71,7.87,5.46,7.87s5.39-3.51,5.39-7.87Zm-9.42,42.83h8.06v8.13h-8.06Z"/><path class="cls-2" d="M395.68,61.63h6.69l12.81,30v-30h7.93v52.65h-6.37L403.87,82.82v31.46h-8.19Z"/><path class="cls-2" d="M429,96.92V79.24C429,67.93,432.4,61,444,61c10.79,0,14.56,5.59,14.56,15.34v2.73h-9.16v-3c0-5.07-.52-8.06-5.27-8.06-5.07,0-5.46,4.1-5.46,8.91V99c0,5.46,1,8.91,5.72,8.91s5.79-3.64,5.79-9.36V93.61h-5.66v-6h14.3v26.72h-6.24l-.65-5.14A8.87,8.87,0,0,1,443,115C432.59,115,429,108,429,96.92Z"/><path class="cls-2" d="M478,98.94l8.25-1.63c.26,6.24,1.76,10.27,6,10.27,3.06,0,4.36-2.08,4.36-4.94,0-4.55-2.34-7.08-5.79-10.07l-6.63-5.79c-3.77-3.25-6.11-6.89-6.11-12.74,0-8.32,5.2-13,13.59-13,9.88,0,12.67,6.63,13.2,14.3l-8.26,1.43c-.2-4.94-.91-8.64-5.14-8.64-2.86,0-4.42,2.14-4.42,4.94,0,3.57,1.5,5.52,4.29,7.93l6.57,5.78c4.29,3.71,7.86,8.32,7.86,15.28,0,7.6-5.33,12.93-13.19,12.93C483,115,478.42,109.4,478,98.94Z"/><path class="cls-2" d="M517.74,61.63H528l10.53,52.65h-8.9l-2.08-12.16h-9.17l-2.14,12.16h-9Zm1.11,57h8.06v8.13h-8.06ZM526.52,96l-3.58-22.1L519.37,96Z"/><path class="cls-2" d="M541.14,97.44V78.66c0-10.79,3.45-17.62,15-17.62,10.79,0,14.23,6,14.23,15.15v4.42h-9.23V76.06c0-4.42-.06-8-4.94-8s-5.39,3.77-5.39,8.58V99.46c0,5.72,1.17,8.45,5.39,8.45,4.75,0,4.94-3.71,4.94-8.39V94.78h9.23V99c0,9.3-3.12,16-14.23,16C544.59,115,541.14,107.71,541.14,97.44Z"/><path class="cls-2" d="M575.92,61.63h9.55v22H596.2v-22h9.62v52.65H596.2V90.49H585.47v23.79h-9.55Z"/><path class="cls-2" d="M146.47,147.63h8.45l7,37.24,6.57-37.24h8.64l-10.59,52.65h-9.43Z"/><path class="cls-2" d="M210.1,164v19.76c0,10.59-3.9,17.22-15.14,17.22s-15.21-6.56-15.21-17.22V164c0-10.66,3.9-17,15.21-17a24.78,24.78,0,0,1,5.13.52c2.08-.26,2.8-1.95,2.8-5.13h6.43c0,3.7-1.43,6.3-3.9,7.73C208.8,153,210.1,157.77,210.1,164Zm-9.75-2.21c0-4.42-.71-7.74-5.39-7.74s-5.46,3.32-5.46,7.74V186c0,4.36.71,7.87,5.46,7.87s5.39-3.51,5.39-7.87ZM197.43,144h-5.14l3.9-13h9Z"/><path class="cls-2" d="M216.15,147.63h9.49v52.65h-9.49Z"/><path class="cls-2" d="M246.11,182.92V165.24c0-11.31,3.45-18.2,15-18.2,10.79,0,14.56,5.59,14.56,15.34v2.73h-9.17v-3c0-5.07-.52-8.06-5.26-8.06-5.07,0-5.46,4.1-5.46,8.91v22c0,5.46,1,8.91,5.72,8.91s5.78-3.64,5.78-9.36v-4.94h-5.65v-6.05H276v26.72h-6.24l-.65-5.14c-1.43,3.38-4,5.85-8.91,5.85C249.75,201,246.11,194,246.11,182.92Z"/><path class="cls-2" d="M282.25,147.63h9.49v52.65h-9.49Z"/><path class="cls-2" d="M306.43,147.63H316.7l10.53,52.65h-8.9l-2.08-12.16h-9.17l-2.14,12.16h-9ZM315.21,182l-3.58-22.1L308.06,182Zm-2.34-51h9l-7.74,13H309Z"/><path class="cls-2" d="M351,154.71h-8.39v-7.08h26.2v7.08h-8.19v45.57H351Z"/><path class="cls-2" d="M372.4,147.63H382v22h10.73v-22h9.62v52.65h-9.62V176.49H382v23.79H372.4Z"/><path class="cls-2" d="M416.93,147.63H427.2l10.53,52.65h-8.9l-2.08-12.16h-9.17l-2.15,12.16h-9ZM412,131h9l3.83,13h-5.07Zm13.72,51-3.58-22.1L418.55,182Z"/><path class="cls-2" d="M441.69,147.63h6.7l12.8,30v-30h7.93v52.65h-6.37l-12.87-31.46v31.46h-8.19Z"/><path class="cls-2" d="M476,147.63h9.55v22h10.73v-22h9.62v52.65h-9.62V176.49H485.5v23.79H476Z"/><path class="cls-2" d="M527.23,147.63h9.56v22h10.72v-22h9.62v52.65h-9.62V176.49H536.79v23.79h-9.56Z"/><path class="cls-2" d="M593.4,164v19.76c0,10.59-3.9,17.22-15.14,17.22s-15.21-6.56-15.21-17.22V164c0-10.66,3.9-17,15.21-17a24.78,24.78,0,0,1,5.13.52c2.08-.26,2.8-1.95,2.8-5.13h6.43c0,3.7-1.43,6.3-3.9,7.73C592.1,153,593.4,157.77,593.4,164Zm-9.75-2.21c0-4.42-.71-7.74-5.39-7.74s-5.46,3.32-5.46,7.74V186c0,4.36.71,7.87,5.46,7.87s5.39-3.51,5.39-7.87Zm-9.42,42.83h8.06v8.13h-8.06Z"/><path class="cls-2" d="M599.19,147.63h15.47c9.42,0,13.45,5.46,13.45,15,0,10.33-5.59,14.3-14.1,14.3h-5.27v23.4h-9.55Zm13.26,22.49c5.26,0,6.63-2,6.63-7.61s-.72-8.12-6.63-8.12h-3.71v15.73Z"/><path class="cls-2" d="M646.64,147.63h9.55v46.08H669v6.57H646.64Z"/><path class="cls-2" d="M676.8,180.19l-10.66-32.56h9l6.5,20.86,6.11-20.86h8.77L686,180.19v20.09H676.8Zm5.78-49.2h9l-7.73,13h-5.14Z"/><path class="cls-2" d="M360.26,350.75A106.34,106.34,0,1,0,466.58,457.08,106.33,106.33,0,0,0,360.26,350.75m-7.87,42c0-3.54,3.55-7.44,7.92-7.44s7.87,3.9,7.87,7.44v36.5c0,3.53-3.52,7.38-7.87,7.38s-7.92-3.85-7.92-7.38Zm7.89,118.81a55.32,55.32,0,0,1-16.43-108.13V424a36.21,36.21,0,1,0,32.77,0V403.42a55.31,55.31,0,0,1-16.34,108.15"/><path class="cls-2" d="M238.21,456.15c0-4.82-4.27-8.72-8.17-8.72H183.48c-3.93,0-8.24,3.9-8.24,8.72s4.31,8.76,8.24,8.76H230c3.9,0,8.17-3.93,8.17-8.76"/><path class="cls-2" d="M545.34,456.15c0-4.82-4.28-8.72-8.18-8.72H490.6c-3.92,0-8.23,3.9-8.23,8.72s4.31,8.76,8.23,8.76h46.56c3.9,0,8.18-3.93,8.18-8.76"/><path class="cls-2" d="M360.31,641.21c4.81,0,8.72-4.27,8.72-8.17V586.48c0-3.92-3.91-8.24-8.72-8.24s-8.77,4.32-8.77,8.24V633c0,3.9,3.94,8.17,8.77,8.17"/><path class="cls-2" d="M520.9,548.07c2.39-4.18.63-9.7-2.76-11.63l-40.41-23.13c-3.4-1.95-9.09-.7-11.48,3.49s-.61,9.74,2.8,11.69l40.41,23.12c3.38,1.94,9,.65,11.44-3.54"/><path class="cls-2" d="M268.39,616.78c4.18,2.39,9.69.62,11.63-2.76l23.13-40.41c2-3.41.7-9.09-3.49-11.48s-9.75-.61-11.69,2.79l-23.13,40.41c-1.93,3.38-.65,9,3.55,11.45"/><path class="cls-2" d="M452.55,616.57c4.17-2.4,5.43-8.05,3.49-11.43l-23.21-40.36c-2-3.41-7.49-5.19-11.67-2.79s-5.45,8.1-3.48,11.51l23.2,40.36c1.95,3.38,7.47,5.12,11.67,2.71"/><path class="cls-2" d="M199.89,548.43c2.4,4.17,8,5.43,11.43,3.49l40.35-23.21c3.41-2,5.21-7.49,2.8-11.67s-8.11-5.45-11.5-3.49L202.6,536.76c-3.38,1.94-5.12,7.48-2.71,11.67"/><path class="cls-2" d="M360.31,334.09c4.81,0,8.72-4.27,8.72-8.17V279.36c0-3.93-3.91-8.24-8.72-8.24s-8.77,4.31-8.77,8.24v46.56c0,3.9,3.94,8.17,8.77,8.17"/><path class="cls-2" d="M254.34,395.51c2.4-4.18.64-9.69-2.75-11.63l-40.41-23.12c-3.41-2-9.09-.71-11.49,3.47s-.6,9.75,2.8,11.7l40.41,23.13c3.39,1.94,9,.65,11.44-3.55"/><path class="cls-2" d="M420.94,350.23c4.19,2.39,9.69.62,11.63-2.76l23.13-40.41c1.95-3.41.7-9.09-3.48-11.49s-9.75-.61-11.7,2.8L417.4,338.78c-1.94,3.39-.66,9.05,3.54,11.45"/><path class="cls-2" d="M299.45,350.33c4.17-2.4,5.43-8.05,3.49-11.43l-23.21-40.37c-2-3.4-7.49-5.19-11.67-2.78s-5.45,8.1-3.49,11.5l23.21,40.36c2,3.38,7.47,5.13,11.67,2.72"/><path class="cls-2" d="M466.13,395.32c2.4,4.18,8.05,5.44,11.43,3.5l40.36-23.21c3.4-2,5.2-7.5,2.8-11.68s-8.1-5.44-11.51-3.48l-40.37,23.21c-3.38,1.94-5.12,7.48-2.71,11.66"/></g></svg>