<svg xmlns="http://www.w3.org/2000/svg" viewBox="0 0 720 720"><defs><style>.cls-1{fill:#56c02b;}.cls-2{fill:#fff;}</style></defs><title>VN_SDG_icons_RGB outlines-01</title><g id="goal_background" data-name="goal background"><rect class="cls-1" x="-1.08" y="-1.08" width="722.16" height="722.16"/></g><g id="ENG_text_graphics" data-name="ENG text &amp; graphics"><path class="cls-2" d="M48.78,88.93C44.7,91.14,33,94.37,28.89,96.41V76.86c5.44-2.21,20.57-9.52,25.67-15.13H75.13v137.7H48.78Z"/><path class="cls-2" d="M78.7,159.48h25.5c0,15.13,1.87,23,11.39,22.61,10-.34,10.54-11.56,10.54-29.58,0-14.62-1.53-25-11.73-25-6.12,0-10,4.25-11.73,12.41H80.06l1.87-78.2h63.24V84.34H103.35L102,114.77c2.72-3.4,9.69-6.12,17.34-6.63,21.25-1.87,31.62,15,31.62,43.18,0,29.24-5.61,50.32-36.89,50.32C85,201.64,78.7,185,78.7,159.48Z"/><path class="cls-2" d="M234.66,68.71h-8.39V61.63h26.2v7.08h-8.19v45.57h-9.62Z"/><path class="cls-2" d="M261.89,61.63h10.27l10.53,52.65h-8.9l-2.08-12.16h-9.17l-2.14,12.16h-9ZM257,45h9l3.84,13h-5.07Zm13.72,51-3.58-22.1L263.52,96Z"/><path class="cls-2" d="M286.26,61.63h9.49v52.65h-9.49Z"/><path class="cls-2" d="M315.77,61.63h6.7l12.8,30v-30h7.94v52.65h-6.37L324,82.82v31.46h-8.19Z"/><path class="cls-2" d="M348.4,96.92V79.24c0-11.31,3.45-18.2,15-18.2C374.21,61,378,66.63,378,76.38v2.73h-9.16v-3c0-5.07-.53-8.06-5.27-8.06-5.07,0-5.46,4.1-5.46,8.91V99c0,5.46,1,8.91,5.72,8.91s5.79-3.64,5.79-9.36V93.61h-5.66v-6h14.3v26.72H372l-.65-5.14c-1.43,3.38-4,5.85-8.91,5.85C352,115,348.4,108,348.4,96.92Z"/><path class="cls-2" d="M383.24,97.25V61.63h9.36V98.35c0,5,.59,9.49,5.46,9.49s5.53-4.48,5.53-9.49V61.63h9.29V97.25c0,11-3.05,17.74-14.82,17.74S383.24,108.3,383.24,97.25Z"/><path class="cls-2" d="M425.82,94.19,415.16,61.63h9l6.5,20.86,6.11-20.86h8.77L435,94.19v20.09h-9.16Z"/><path class="cls-2" d="M448.18,61.63h22.1v6.76H457.73V83.53h9.88v6.7h-9.88v17.48h12.68v6.57H448.18Zm7.21-16.12h7.93l6,12h-6.56l-3.38-7.8L456,57.47h-6.5Z"/><path class="cls-2" d="M474.05,61.63h6.69l12.81,30v-30h7.93v52.65h-6.37L482.24,82.82v31.46h-8.19Z"/><path class="cls-2" d="M518.9,61.63h8.45l6.95,37.24,6.57-37.24h8.64l-10.59,52.65h-9.43Z"/><path class="cls-2" d="M558.87,61.63h10.27l10.53,52.65h-8.9l-2.08-12.16h-9.17l-2.14,12.16h-9ZM553.93,45h9l3.84,13h-5.07Zm13.72,51-3.58-22.1L560.5,96Z"/><path class="cls-2" d="M230.17,138.63h10l7.47,36.46,7.74-36.46H265l1,52.65h-7.15l-.78-36.6-7.48,36.6H244.8l-7.61-36.73-.71,36.73h-7.22Z"/><path class="cls-2" d="M271,174.77V155c0-10.66,3.9-17,15.21-17s15.15,6.31,15.15,17v19.76c0,10.59-3.9,17.22-15.15,17.22S271,185.43,271,174.77Zm11.18-52.26h7.93l6,12h-6.56l-3.38-7.8-3.32,7.8h-6.5ZM291.6,177V152.8c0-4.42-.72-7.74-5.4-7.74s-5.46,3.32-5.46,7.74V177c0,4.36.72,7.87,5.46,7.87S291.6,181.4,291.6,177Z"/><path class="cls-2" d="M306.74,138.63h9.49v52.65h-9.49Z"/><path class="cls-2" d="M341.51,145.71h-8.38v-7.08h26.2v7.08h-8.2v45.57h-9.62Z"/><path class="cls-2" d="M362.18,138.63h12.68c10.53,0,16.51,3.38,16.51,14,0,6.31-1.56,10.73-6.5,12.74l7.34,25.94h-9.62l-6.3-24.12h-4.55v24.12h-9.56Zm12.61,22.55c5.53,0,7.54-2.4,7.54-8.06,0-5.33-1.49-7.93-7-7.93h-3.57v16Z"/><path class="cls-2" d="M425.75,141.55v32.7c0,11.05-3.05,17.74-14.82,17.74s-14.82-6.69-14.82-17.74V138.63h9.36v36.72c0,5,.59,9.49,5.46,9.49s5.53-4.48,5.53-9.49V138.63h4c2.6,0,3.51-1.69,3.51-5.2h6.44C430.37,137.52,428.68,140.19,425.75,141.55Z"/><path class="cls-2" d="M460.85,155v19.76c0,10.59-3.9,17.22-15.14,17.22s-15.21-6.56-15.21-17.22V155c0-10.66,3.9-17,15.21-17a24.78,24.78,0,0,1,5.13.52c2.08-.26,2.8-1.95,2.8-5.13h6.43c0,3.7-1.43,6.3-3.9,7.73C459.55,144,460.85,148.77,460.85,155ZM443.3,135l-7.73-13h9l3.83,13Zm7.8,17.81c0-4.42-.71-7.74-5.39-7.74s-5.46,3.32-5.46,7.74V177c0,4.36.71,7.87,5.46,7.87s5.39-3.51,5.39-7.87Z"/><path class="cls-2" d="M466,138.63h6.69l12.81,30v-30h7.93v52.65h-6.37l-12.87-31.46v31.46H466Z"/><path class="cls-2" d="M498.62,173.92V156.24c0-11.31,3.44-18.2,15-18.2,10.79,0,14.56,5.59,14.56,15.34v2.73H519v-3c0-5.07-.52-8.06-5.27-8.06-5.07,0-5.46,4.1-5.46,8.91v22c0,5.46,1,8.91,5.72,8.91s5.79-3.64,5.79-9.36v-4.94h-5.66v-6.05h14.3v26.72h-6.24l-.65-5.14a8.87,8.87,0,0,1-8.9,5.85C502.26,192,498.62,185,498.62,173.92Z"/><path class="cls-2" d="M234.66,225.71h-8.39v-7.08h26.2v7.08h-8.19v45.57h-9.62Z"/><path class="cls-2" d="M255.33,218.63H268c10.53,0,16.51,3.38,16.51,14,0,6.31-1.56,10.73-6.5,12.74l7.35,25.94h-9.62l-6.31-24.12h-4.55v24.12h-9.55Zm12.61,22.55c5.52,0,7.54-2.4,7.54-8.06,0-5.33-1.5-7.93-7-7.93h-3.58v16Z"/><path class="cls-2" d="M289.84,218.63h22.1v6.76H299.39v15.14h9.88v6.7h-9.88v17.48h12.68v6.57H289.84Zm7.21-16.12H305l6,12H304.4l-3.38-7.8-3.32,7.8h-6.5Z"/><path class="cls-2" d="M315.71,218.63h6.69l12.81,30v-30h7.93v52.65h-6.37L323.9,239.82v31.46h-8.19Z"/><path class="cls-2" d="M363.29,246.51H360V241.7h3.25V218.63H375.7c12.81,0,16.64,5.13,16.64,16.38v19.17c0,11.57-4,17.1-16.31,17.1H363.29Zm12.61,18.07c6.63,0,6.82-3.51,6.82-10.07V234.36c0-6.31-.65-8.91-7-8.91h-3.06V241.7h3.51v4.81h-3.51v18.07Z"/><path class="cls-2" d="M405,218.63h10.27l10.53,52.65h-8.9l-2.08-12.16H405.6l-2.14,12.16h-9ZM406.12,204h7.93l6,10.47H413.6l-3.51-6.57-3.45,6.57h-6.37Zm7.61,49-3.58-22.1L406.58,253Zm8.38-53.49h7l-5.52,7.73h-4.94Z"/><path class="cls-2" d="M431.86,225.71h-8.38v-7.08h26.19v7.08h-8.19v45.57h-9.62Z"/><path class="cls-2" d="M466.38,218.63h9.55v46.08h12.81v6.57H466.38Z"/><path class="cls-2" d="M492.05,218.63h9.49v52.65h-9.49Z"/><path class="cls-2" d="M507.72,218.63h22.1v6.76H517.27v15.14h9.88v6.7h-9.88v17.48H530v6.57H507.72ZM514.93,204h7.93l6,10.47h-6.43l-3.51-6.57-3.45,6.57h-6.37Zm8.84-4.48h7l3.45,7.73h-5Z"/><path class="cls-2" d="M533.59,218.63h6.69l12.81,30v-30H561v52.65h-6.37l-12.87-31.46v31.46h-8.19Z"/><path class="cls-2" d="M297.69,500.78a1.6,1.6,0,0,1,1.59,1.6v52.83a1.58,1.58,0,0,1-1.59,1.6H276.31a1.59,1.59,0,0,1-1.61-1.6V502.38a1.61,1.61,0,0,1,1.61-1.6Z"/><path class="cls-2" d="M532.45,579.5H180.16a1.64,1.64,0,0,0-1.61,1.65v21.53a1.6,1.6,0,0,0,1.61,1.59H532.45a1.62,1.62,0,0,0,1.62-1.59V581.15a1.66,1.66,0,0,0-1.62-1.65"/><path class="cls-2" d="M532.45,622.29H180.16a1.6,1.6,0,0,0-1.61,1.59v21.6a1.62,1.62,0,0,0,1.61,1.59H532.45a1.63,1.63,0,0,0,1.62-1.59v-21.6a1.62,1.62,0,0,0-1.62-1.59"/><path class="cls-2" d="M465.42,442.3c-4.41-3.44-16.15-11.48-30.48-11.48-10.24,0-19.77,4-28.29,12a3,3,0,0,0-.94,2.21V447a3.07,3.07,0,0,0,1,2.41,2.84,2.84,0,0,0,2.48.57,3.26,3.26,0,0,0,.67-.16,4.76,4.76,0,0,0,1.76-1.12c1.84-1.24,6.89-2.94,14.11-2.94,7.46,0,22.12,2,36.3,15.22l.32.29a4.26,4.26,0,0,0,3.07,1.27,4.17,4.17,0,0,0,3-1.24l.28-.3c14.25-13.24,28.89-15.24,36.35-15.24,7.27,0,12.3,1.7,14.15,2.94a5.16,5.16,0,0,0,2,1.19,4.35,4.35,0,0,0,2.06.07,3,3,0,0,0,2.22-2.91v-1.7a3.06,3.06,0,0,0-.95-2.18c-8.6-8.2-18.23-12.34-28.63-12.34-14.2,0-25.89,7.91-30.41,11.5"/><path class="cls-2" d="M443.55,301.89a2.9,2.9,0,0,0-1.53,1.86l-.36,1.17a3,3,0,0,0,.46,2.65,2.92,2.92,0,0,0,2.18,1.18,1.12,1.12,0,0,0,.44,0,3.93,3.93,0,0,0,1.71-.43,8.46,8.46,0,0,1,2.13-.24c1.58,0,15.78.48,25.17,16.44l.12.23a3.61,3.61,0,0,0,2.25,1.8,4.53,4.53,0,0,0,1.13.17,3.68,3.68,0,0,0,1.77-.44l.23-.11A35.1,35.1,0,0,1,495,322.3c8.9,0,14.71,3.63,16.07,5.15a4.07,4.07,0,0,0,1.17,1.31,8.64,8.64,0,0,0,1.15.55,4,4,0,0,0,.52.08,1.67,1.67,0,0,0,.32,0,3.05,3.05,0,0,0,2.89-2.16l.29-1a2.61,2.61,0,0,0,.13-.85,2.88,2.88,0,0,0-.41-1.52c-6.84-11.88-16.77-14.36-23.9-14.36a37.66,37.66,0,0,0-12.68,2.38c-3.23-4.34-11.38-13.31-23.76-13.31a29.26,29.26,0,0,0-13.21,3.34"/><path class="cls-2" d="M369.11,356.09l.11,1.58a2.93,2.93,0,0,0,1.4,2.38,3,3,0,0,0,2.37.36c.17,0,.37-.11.52-.16a3.89,3.89,0,0,0,1.52-1.13c1.5-1.08,6.32-3.05,13.44-3.05,6.84,0,17.25,1.83,27.85,10.54l.25.25a4.19,4.19,0,0,0,2.72,1h.26a4.06,4.06,0,0,0,2.76-1.33l.24-.26C434.29,353.86,446.94,352,453.43,352c4.63,0,7.91,1,9.19,1.68a4.48,4.48,0,0,0,1.83.95,4,4,0,0,0,1.29.09,5,5,0,0,0,.74-.18,3,3,0,0,0,2-3l-.08-1.38a3,3,0,0,0-1.06-2.09c-7-5.9-14.58-8.87-22.54-8.87-12.39,0-22.27,7.32-26.37,10.91-3.75-2.55-12.84-7.8-23.5-7.8-9.38,0-17.78,3.89-25,11.55a3.1,3.1,0,0,0-.82,2.25"/><path class="cls-2" d="M190.84,384.37A38.19,38.19,0,0,1,229,346.18c.83,0,1.63.07,2.45.12a51.65,51.65,0,1,1,97.93,26.44,57.73,57.73,0,0,1-12.53,114.09c-2.33,0-77.07-.45-77.07-.45h0a40.85,40.85,0,0,1-29.74-68.89A38.13,38.13,0,0,1,190.84,384.37Z"/></g></svg>