<svg xmlns="http://www.w3.org/2000/svg" viewBox="0 0 720 720"><defs><style>.cls-1{fill:#19486a;}.cls-2{fill:#fff;}</style></defs><title>VN_SDG_icons_RGB outlines-01</title><g id="goal_background" data-name="goal background"><rect class="cls-1" x="-1.08" y="-1.08" width="722.16" height="722.16"/></g><g id="ENG_text_graphics" data-name="ENG text &amp; graphics"><path class="cls-2" d="M50.12,88.93C46,91.14,34.31,94.37,30.23,96.41V76.86c5.44-2.21,20.57-9.52,25.67-15.13H76.47v137.7H50.12Z"/><path class="cls-2" d="M113.53,81.79H76.13V61.73H139.2V78.9L110.13,199.43H84.63Z"/><path class="cls-2" d="M243.61,114.93a5.88,5.88,0,0,1-1,.06c-10.47,0-14-6.5-14-17.29V78.07c0-10.79,3.51-17.09,14-17.09s14,6.37,14,17.09v19.7c0,7.47-1.76,12.93-6.38,15.47a22.75,22.75,0,0,0,4.8,4.81l-1.93,6.63C250.34,123.31,246,119,243.61,114.93Zm3.16-14.56V75.47c0-3.64-.47-6.82-4.16-6.82s-4.15,3.18-4.15,6.82v24.9c0,3.57.41,6.95,4.15,6.95S246.77,103.94,246.77,100.37Z"/><path class="cls-2" d="M261.22,97.64v-36h9.47v37.5c0,4,.41,8.06,4.22,8.06s4.21-4,4.21-8.06V61.63h9.53v36c0,11-3,17.35-13.74,17.35S261.22,108.69,261.22,97.64Z"/><path class="cls-2" d="M300.41,61.63h10.71l9.12,52.65h-8.89l-1.75-11.57h-7.49l-1.82,11.57h-9.06Zm8.25,34.45-2.87-21.19L303,96.08Z"/><path class="cls-2" d="M323.58,61.63h6.72L340.83,89V61.63h8v52.65h-6.49L331.83,85.16v29.12h-8.25Z"/><path class="cls-2" d="M367.8,61.63h9.65V83.21h8.37V61.63h9.65v52.65h-9.65V90.94h-8.37v23.34H367.8Z"/><path class="cls-2" d="M401.26,61.63h20.65V69H410.86V83h8.54v7.48h-8.54V107H422v7.28H401.26Zm6.67-15.08h7.49L421,57.21h-6.32l-3-6.5-2.93,6.5h-6.26ZM406.7,118.7h7.73v8.64H406.7Z"/><path class="cls-2" d="M438.82,89.77h-2.93V84.7h2.93V61.63h11.64c12.05,0,15.5,5.07,15.5,16.51V97.31c0,11.7-3.5,17-15.26,17H438.82Zm11.94,17c5.26,0,5.55-2.79,5.55-8.32V76.71c0-5.33-.52-7.54-5.61-7.54h-2.4V84.7h3v5.07h-3v17Z"/><path class="cls-2" d="M470.23,97.7V78.07c0-10.79,3.51-17.09,14-17.09s14,6.37,14,17.09v19.7c0,10.72-3.57,17.22-14,17.22S470.23,108.49,470.23,97.7Zm10.18-51.15h7.49l5.56,10.66h-6.32l-3-6.5-2.93,6.5H475Zm8,53.82V75.47c0-3.64-.53-6.82-4.15-6.82s-4.16,3.18-4.16,6.82v24.9c0,3.57.41,6.95,4.16,6.95S488.37,103.94,488.37,100.37Zm6.73-58.5h6.78l-5.09,7.86H492Z"/><path class="cls-2" d="M503.29,61.63h9.59v52.65h-9.59Z"/><path class="cls-2" d="M536.22,69.56h-7.31V61.63h24.22v7.93h-7.2v44.72h-9.71Z"/><path class="cls-2" d="M561.08,61.63h10.71l9.13,52.65H572l-1.75-11.57h-7.49L561,114.28H551.9Zm6.15-17h9L569,57.73h-5.38Zm2.1,51.42-2.87-21.19-2.8,21.19Z"/><path class="cls-2" d="M582.9,97.44V78.59c0-10.85,3.22-17.61,13.87-17.61,10.18,0,13.28,6.11,13.28,15.21v4.42h-9.36V75.73c0-3.7-.12-7.08-3.86-7.08s-4.16,3.51-4.16,7.41V100c0,4.48.76,7.34,4.16,7.34,3.68,0,3.86-3.51,3.86-7.34V94.84h9.36V99.2c0,9.16-2.93,15.79-13.28,15.79C586.12,115,582.9,108,582.9,97.44Z"/><path class="cls-2" d="M227.05,144.63h8.37L241,181l5.27-36.4H255l-9,52.65h-9.95Z"/><path class="cls-2" d="M253.49,127.66h9.07l3.51,13.07h-5.32Zm5,17h9.59v52.65h-9.59Z"/><path class="cls-2" d="M286.25,180.44V161.59c0-10.85,3.22-17.61,13.87-17.61,10.18,0,13.28,6.11,13.28,15.21v4.42H304v-4.88c0-3.7-.12-7.08-3.86-7.08s-4.16,3.51-4.16,7.41V183c0,4.48.76,7.34,4.16,7.34,3.68,0,3.86-3.51,3.86-7.34v-5.14h9.36v4.36c0,9.16-2.93,15.79-13.28,15.79C289.47,198,286.25,191,286.25,180.44Z"/><path class="cls-2" d="M324.69,144.63h10.7l9.13,52.65h-8.89l-1.76-11.57h-7.49l-1.81,11.57H315.5Zm6.14-17h9l-7.2,13.07h-5.38Zm2.11,51.42-2.87-21.19-2.81,21.19Z"/><path class="cls-2" d="M346.51,180.44V161.59c0-10.85,3.22-17.61,13.86-17.61,10.18,0,13.28,6.11,13.28,15.21v4.42h-9.36v-4.88c0-3.7-.11-7.08-3.86-7.08s-4.15,3.51-4.15,7.41V183c0,4.48.76,7.34,4.15,7.34,3.69,0,3.86-3.51,3.86-7.34v-5.14h9.36v4.36c0,9.16-2.92,15.79-13.28,15.79C349.73,198,346.51,191,346.51,180.44Z"/><path class="cls-2" d="M391.9,144.63h10.24L408,177.84l6.2-33.21h9.89l.88,52.65h-7l-.76-35.75-6.09,35.75h-6l-6.26-35.95-.71,35.95h-7.07Z"/><path class="cls-2" d="M430.1,180.64v-36h9.48v37.5c0,4,.41,8.06,4.21,8.06s4.22-4,4.22-8.06v-37.5h9.53v36c0,11.05-3,17.35-13.75,17.35S430.1,191.69,430.1,180.64ZM440,201.7h7.72v8.64H440Z"/><path class="cls-2" d="M462.1,180.44V161.59c0-10.85,3.22-17.61,13.87-17.61,10.18,0,13.28,6.11,13.28,15.21v4.42h-9.36v-4.88c0-3.7-.12-7.08-3.86-7.08s-4.16,3.51-4.16,7.41V183c0,4.48.76,7.34,4.16,7.34,3.68,0,3.86-3.51,3.86-7.34v-5.14h9.36v4.36c0,9.16-2.93,15.79-13.28,15.79C465.32,198,462.1,191,462.1,180.44Z"/><path class="cls-2" d="M511.3,152.56H504v-7.93h24.22v7.93H521v44.72H511.3Z"/><path class="cls-2" d="M531.13,144.63h9.6v52.65h-9.6Z"/><path class="cls-2" d="M546.46,144.63h20.65V152H556.05v14h8.54v7.48h-8.54V190h11.18v7.28H546.46ZM553.13,128h7.49l5.55,12.22h-6.49l-2.81-7.8-2.75,7.8h-6.43Z"/><path class="cls-2" d="M570.33,180.64v-36h9.47v37.5c0,4,.41,8.06,4.22,8.06s4.21-4,4.21-8.06v-37.5h9.53v36c0,11.05-3,17.35-13.74,17.35S570.33,191.69,570.33,180.64Z"/><path class="cls-2" d="M544.38,437.25a94.6,94.6,0,0,0-91-94.42,94.49,94.49,0,0,0-178.19,0,94.42,94.42,0,0,0-54.54,168.9,94.43,94.43,0,0,0,144.1,104.16A94.43,94.43,0,0,0,508.07,511.63a94.38,94.38,0,0,0,36.31-74.38m-104.64-63a75.5,75.5,0,0,1-64.33,74.55,74.8,74.8,0,0,1,63.35-86.14,75,75,0,0,1,1,11.59m-75.11,217.1a75.25,75.25,0,0,1-.7-107.5,75.25,75.25,0,0,1,.7,107.5M289.8,362.69a74.74,74.74,0,0,1,63.35,86.15,74.74,74.74,0,0,1-63.35-86.15M346.07,471A75.18,75.18,0,0,1,244,504.2,75.18,75.18,0,0,1,346.07,471m36.18-.51a75.23,75.23,0,0,1,102.56,33.59,75.2,75.2,0,0,1-102.56-33.59m-18-171.66a75.54,75.54,0,0,1,69.18,45.38,94.82,94.82,0,0,0-69.18,53.1,94.73,94.73,0,0,0-69.16-53.1,75.54,75.54,0,0,1,69.16-45.38M203.21,437.25a75.56,75.56,0,0,1,67.37-75,96.33,96.33,0,0,0-.79,12.07,94.29,94.29,0,0,0,30.87,69.81,94.71,94.71,0,0,0-72.45,49.09,75.21,75.21,0,0,1-25-55.94M235.94,538a74.71,74.71,0,0,1,1.65-15.64A94.32,94.32,0,0,0,324.3,520a94,94,0,0,0,25.07,83.11A75.32,75.32,0,0,1,235.94,538m256.69-.62A75.35,75.35,0,0,1,380,602.89,94.19,94.19,0,0,0,405.9,538a95.31,95.31,0,0,0-1.76-18.08,94.27,94.27,0,0,0,87,2.37,75.06,75.06,0,0,1,1.53,15.09m-64.15-93.8a94.24,94.24,0,0,0,30.29-69.25,96.33,96.33,0,0,0-.79-12.07A75.34,75.34,0,0,1,500.57,493a94.69,94.69,0,0,0-72.09-49.46"/></g></svg>