<svg xmlns="http://www.w3.org/2000/svg" viewBox="0 0 720 720"><defs><style>.cls-1{fill:#fd6925;}.cls-2{fill:#fff;}</style></defs><title>VN_SDG_icons_RGB outlines-01</title><g id="goal_background" data-name="goal background"><rect class="cls-1" x="-1.08" y="-1.08" width="722.16" height="722.16"/></g><g id="ENG_text_graphics" data-name="ENG text &amp; graphics"><path class="cls-2" d="M57.16,166.11v-2H82c0,11.56,1.36,17.17,10,17.17,8.33,0,10.2-6.63,10.2-27.88V139.42c-2.89,4.93-9.35,7.82-17.34,8-22.27.34-29.92-18.19-29.92-41C55,78.56,65,60,92,60c26.18,0,37.06,17.85,37.06,44v50.15c0,26.86-7.65,47.09-37.23,47.09C66.51,201.3,57.16,188.89,57.16,166.11Zm45.05-45.05V99.13c0-10.37-1.7-19.55-10.2-19.55-8.67,0-10.2,8.84-10.2,23.8,0,14.11.17,24,10.37,24C97.45,127.35,100.51,124,102.21,121.06Z"/><path class="cls-2" d="M156.09,96.5V77.71c0-10.79,3.45-17.61,15-17.61,10.79,0,14.24,6,14.24,15.14v4.42h-9.23V75.11c0-4.42-.07-8-4.94-8s-5.4,3.77-5.4,8.58V98.51c0,5.72,1.17,8.45,5.4,8.45,4.74,0,4.94-3.7,4.94-8.38V93.83h9.23v4.23c0,9.29-3.12,16-14.24,16C159.54,114.05,156.09,106.77,156.09,96.5Z"/><path class="cls-2" d="M187.81,96.82V77.06c0-10.66,3.9-17,15.21-17s15.15,6.3,15.15,17V96.82c0,10.6-3.9,17.23-15.15,17.23S187.81,107.48,187.81,96.82ZM199,44.56h7.94l6,12h-6.57L203,48.72l-3.31,7.8h-6.51Zm9.43,54.54V74.85c0-4.42-.71-7.73-5.4-7.73s-5.45,3.31-5.45,7.73V99.1c0,4.35.71,7.86,5.45,7.86S208.42,103.45,208.42,99.1Z"/><path class="cls-2" d="M221.87,60.68h6.7l12.8,30v-30h7.93v52.65h-6.37L230.06,81.87v31.46h-8.19Z"/><path class="cls-2" d="M253.07,96V78.3c0-11.31,3.45-18.2,15-18.2,10.79,0,14.56,5.59,14.56,15.34v2.73h-9.17v-3c0-5.07-.52-8.06-5.26-8.06-5.07,0-5.46,4.09-5.46,8.9v22c0,5.46,1,8.9,5.72,8.9s5.78-3.64,5.78-9.36V92.66h-5.65v-6h14.3v26.71h-6.24L276,108.2c-1.43,3.38-4,5.85-8.91,5.85C256.71,114.05,253.07,107.09,253.07,96Z"/><path class="cls-2" d="M299.29,60.68H306l12.81,30v-30h7.93v52.65h-6.37L307.48,81.87v31.46h-8.19Z"/><path class="cls-2" d="M330.49,96V78.3c0-11.31,3.44-18.2,15-18.2,10.79,0,14.56,5.59,14.56,15.34v2.73H350.9v-3c0-5.07-.52-8.06-5.27-8.06-5.07,0-5.46,4.09-5.46,8.9v22c0,5.46,1,8.9,5.72,8.9s5.79-3.64,5.79-9.36V92.66H346v-6h14.3v26.71h-6.24l-.65-5.13a8.87,8.87,0,0,1-8.9,5.85C334.13,114.05,330.49,107.09,330.49,96Z"/><path class="cls-2" d="M364.42,60.68H374v22H384.7v-22h9.62v52.65H384.7V89.54H374v23.79h-9.55Z"/><path class="cls-2" d="M399.26,60.68h9.49v52.65h-9.49Z"/><path class="cls-2" d="M413.49,60.68h22.1v6.76H423.05V82.59h9.88v6.69h-9.88v17.49h12.67v6.56H413.49Zm7.22-14.62h7.93l6,10.46h-6.44L424.67,50l-3.44,6.56h-6.37Zm-1.3,71.63h8.06v8.12h-8.06Z"/><path class="cls-2" d="M437.93,60.68H453.4c9.43,0,13.46,5.46,13.46,14.95,0,10.34-5.59,14.3-14.11,14.3h-5.26v23.4h-9.56Zm13.26,22.49c5.27,0,6.63-2,6.63-7.6s-.71-8.13-6.63-8.13h-3.7V83.17Z"/><path class="cls-2" d="M463.48,118.92a5.39,5.39,0,0,0,4.22-5.59H463v-8.77h8.65v8c0,5.59-2.41,8.65-7.28,9.56Z"/><path class="cls-2" d="M485.84,98l8.25-1.62c.26,6.24,1.76,10.27,6,10.27,3.06,0,4.36-2.08,4.36-4.94,0-4.55-2.34-7.09-5.79-10.08L492,85.84c-3.77-3.25-6.11-6.89-6.11-12.74,0-8.32,5.2-13,13.59-13,9.88,0,12.67,6.63,13.19,14.3l-8.25,1.43c-.2-4.94-.91-8.65-5.14-8.65-2.86,0-4.42,2.15-4.42,4.94,0,3.58,1.5,5.53,4.29,7.93l6.57,5.79c4.29,3.7,7.86,8.32,7.86,15.27,0,7.61-5.33,12.94-13.19,12.94C490.78,114.05,486.23,108.46,485.84,98Z"/><path class="cls-2" d="M523.47,60.68h10.27l10.53,52.65h-8.9l-2.08-12.15h-9.17L522,113.33h-9Zm8.78,34.39L528.67,73l-3.57,22.1Zm-2.34-51h9l-7.74,13H526Z"/><path class="cls-2" d="M546.15,60.68h6.7l12.8,30v-30h7.94v52.65h-6.38L554.34,81.87v31.46h-8.19Z"/><path class="cls-2" d="M577.35,96V78.3c0-11.31,3.45-18.2,15-18.2,10.79,0,14.56,5.59,14.56,15.34v2.73h-9.17v-3c0-5.07-.52-8.06-5.26-8.06-5.07,0-5.46,4.09-5.46,8.9v22c0,5.46,1,8.9,5.72,8.9s5.78-3.64,5.78-9.36V92.66h-5.65v-6h14.3v26.71H601l-.65-5.13c-1.43,3.38-4,5.85-8.91,5.85C581,114.05,577.35,107.09,577.35,96Z"/><path class="cls-2" d="M628.83,67.77h-8.38V60.68h26.19v7.09h-8.19v45.56h-9.62Z"/><path class="cls-2" d="M654.64,60.68h10.27l10.53,52.65h-8.91l-2.08-12.15h-9.16l-2.15,12.15h-9Zm1.1,57h8.06v8.12h-8.06Zm7.67-22.62L659.84,73l-3.58,22.1Z"/><path class="cls-2" d="M676,96.82V77.06c0-10.66,3.9-17,15.21-17s15.14,6.3,15.14,17V96.82c0,10.6-3.9,17.23-15.14,17.23S676,107.48,676,96.82Zm20.6,2.28V74.85c0-4.42-.71-7.73-5.39-7.73s-5.46,3.31-5.46,7.73V99.1c0,4.35.71,7.86,5.46,7.86S696.56,103.45,696.56,99.1Z"/><path class="cls-2" d="M154.47,153.68h8.45l7,37.25,6.56-37.25h8.65l-10.6,52.65h-9.42Z"/><path class="cls-2" d="M193,153.68h10.27l10.54,52.65h-8.91l-2.08-12.15h-9.17l-2.14,12.15h-9ZM188.07,137h9l3.84,13h-5.07Zm13.72,51L198.21,166l-3.57,22.1Z"/><path class="cls-2" d="M228.11,153.68h15.47c9.43,0,13.46,5.46,13.46,14.95,0,10.34-5.59,14.3-14.11,14.3h-5.26v23.4h-9.56Zm13.26,22.49c5.27,0,6.63-2,6.63-7.6s-.71-8.13-6.63-8.13h-3.7v15.73Z"/><path class="cls-2" d="M259.12,153.68h9.55v22H279.4v-22H289v52.65H279.4V182.54H268.67v23.79h-9.55Z"/><path class="cls-2" d="M301.56,153.68h10.27l10.53,52.65h-8.9l-2.08-12.15h-9.17l-2.14,12.15h-9Zm8.78,34.39L306.76,166l-3.57,22.1ZM308,137h9l-7.74,13H304.1Z"/><path class="cls-2" d="M327,160.77h-8.38v-7.09h26.19v7.09h-8.19v45.56H327Z"/><path class="cls-2" d="M364,160.77h-8.38v-7.09h26.19v7.09h-8.19v45.56H364Z"/><path class="cls-2" d="M383.2,153.68h12.68c10.53,0,16.51,3.38,16.51,14,0,6.3-1.56,10.72-6.5,12.74l7.34,25.93h-9.62l-6.3-24.11h-4.55v24.11H383.2Zm12.61,22.56c5.53,0,7.54-2.41,7.54-8.06,0-5.33-1.49-7.93-7-7.93h-3.57v16Z"/><path class="cls-2" d="M416.54,153.68H426v52.65h-9.49Z"/><path class="cls-2" d="M430.78,153.68h22.1v6.76H440.33v15.15h9.88v6.69h-9.88v17.49H453v6.56H430.78ZM438,139.06h7.93l6,10.46h-6.43L442,143l-3.45,6.56h-6.37Zm12.1,1.88c1.62-1.17,2.73-2.21,2.73-3.83s-1.3-2.54-3.13-2.54a9.67,9.67,0,0,0-3.12.52v-4a14.77,14.77,0,0,1,5.08-.85c4,0,7.08,1.95,7.08,6.05s-2.73,6-6,7.54Z"/><path class="cls-2" d="M455.22,153.68h6.69l12.81,30v-30h7.93v52.65h-6.37l-12.87-31.46v31.46h-8.19Z"/><path class="cls-2" d="M499.81,153.68h9.55v22h10.73v-22h9.62v52.65h-9.62V182.54H509.36v23.79h-9.55Z"/><path class="cls-2" d="M542.25,153.68h10.27l10.53,52.65h-8.9l-2.08-12.15H542.9l-2.14,12.15h-9Zm1.11,57h8.06v8.12h-8.06ZM551,188.07,547.45,166l-3.57,22.1Z"/><path class="cls-2" d="M582.62,160.77h-8.39v-7.09h26.2v7.09h-8.19v45.56h-9.62Z"/><path class="cls-2" d="M608.42,153.68h10.27l10.53,52.65h-8.9l-2.08-12.15h-9.17l-2.14,12.15h-9Zm1.17-14.62h7.93l6,10.46h-6.43L613.56,143l-3.45,6.56h-6.37Zm7.61,49L613.62,166l-3.57,22.1Zm1.23-53.5h7l3.45,7.74h-5Z"/><path class="cls-2" d="M631.11,153.68h6.69l12.81,30v-30h7.93v52.65h-6.37L639.3,174.87v31.46h-8.19Z"/><path class="cls-2" d="M662.31,189V171.3c0-11.31,3.44-18.2,15-18.2,10.79,0,14.56,5.59,14.56,15.34v2.73h-9.16v-3c0-5.07-.52-8.06-5.27-8.06-5.07,0-5.46,4.09-5.46,8.9v22c0,5.46,1,8.9,5.72,8.9s5.79-3.64,5.79-9.36v-4.94h-5.66v-6h14.3v26.71H685.9l-.65-5.13a8.87,8.87,0,0,1-8.9,5.85C666,207.05,662.31,200.09,662.31,189Z"/><path class="cls-2" d="M545.32,474.1l-86.24-49.77V324.76a5.88,5.88,0,0,0-2.94-5.1L367,268.18a5.88,5.88,0,0,0-5.88,0l-89.17,51.48a5.86,5.86,0,0,0-2.94,5.1v99.57L182.76,474.1a5.85,5.85,0,0,0-2.94,5.09v103a5.86,5.86,0,0,0,2.94,5.1l89.17,51.47a5.87,5.87,0,0,0,5.88,0L364,589l86.22,49.77a5.92,5.92,0,0,0,2.94.79,5.82,5.82,0,0,0,2.94-.79l89.18-51.47a5.86,5.86,0,0,0,2.94-5.1v-103A5.85,5.85,0,0,0,545.32,474.1ZM358.16,572l-71.53-41.29,71.53-41.3Zm83.27-144.25L369.92,469V386.43ZM358.16,469l-71.52-41.28,71.52-41.3Zm17.65,10.19,77.39-44.68,77.41,44.67-77.41,44.7Zm71.51-61.67-71.51-41.29L447.32,335Zm-95.05-41.29-71.52,41.3V335ZM269,623.46l-77.41-44.68V489.39L269,534.08Zm11.76,0V540.88l71.52,41.29ZM536.5,578.78l-77.42,44.68V534.08l77.42-44.69Z"/></g></svg>