<svg xmlns="http://www.w3.org/2000/svg" viewBox="0 0 720 720"><defs><style>.cls-1{fill:#fd9d24;}.cls-2{fill:#fff;}</style></defs><title>VN_SDG_icons_RGB outlines-01</title><g id="goal_background" data-name="goal background"><rect class="cls-1" x="-1.08" y="-1.08" width="722.16" height="722.16"/></g><g id="ENG_text_graphics" data-name="ENG text &amp; graphics"><path class="cls-2" d="M49.14,88.93C45.22,91.14,34,94.37,30.06,96.41V76.86c5.22-2.21,19.73-9.52,24.62-15.13H74.41v137.7H49.14Z"/><path class="cls-2" d="M99.84,88.93c-3.92,2.21-15.17,5.44-19.08,7.48V76.86c5.22-2.21,19.73-9.52,24.62-15.13H125.1v137.7H99.84Z"/><path class="cls-2" d="M167.84,97.44V78.66c0-10.79,3.44-17.62,15-17.62,10.8,0,14.24,6,14.24,15.15v4.42h-9.23V76.06c0-4.42-.06-8-4.94-8s-5.4,3.77-5.4,8.58V99.46c0,5.72,1.17,8.45,5.4,8.45,4.75,0,4.94-3.71,4.94-8.39V94.78h9.23V99c0,9.3-3.12,16-14.24,16C171.28,115,167.84,107.71,167.84,97.44Z"/><path class="cls-2" d="M209,61.63h10.28l10.53,52.65h-8.91l-2.08-12.16h-9.17l-2.14,12.16h-9ZM217.76,96l-3.58-22.1L210.61,96Zm-2.34-51h9l-7.73,13h-5.14Z"/><path class="cls-2" d="M231,97.44V78.66C231,67.87,234.46,61,246,61c10.8,0,14.24,6,14.24,15.15v4.42H251V76.06c0-4.42-.07-8-4.94-8s-5.4,3.77-5.4,8.58V99.46c0,5.72,1.17,8.45,5.4,8.45,4.74,0,4.94-3.71,4.94-8.39V94.78h9.23V99c0,9.3-3.12,16-14.24,16C234.46,115,231,107.71,231,97.44Z"/><path class="cls-2" d="M282.69,68.71h-8.38V61.63H300.5v7.08h-8.19v45.57h-9.62Z"/><path class="cls-2" d="M302.78,61.63h9.55v22h10.73v-22h9.62v52.65h-9.62V90.49H312.33v23.79h-9.55Z"/><path class="cls-2" d="M345.94,61.63h10.27l10.53,52.65h-8.91l-2.08-12.16h-9.16l-2.15,12.16h-9ZM341,45h9l3.83,13h-5.07Zm13.71,51-3.57-22.1L347.56,96Z"/><path class="cls-2" d="M369.34,61.63H376l12.81,30v-30h7.93v52.65H390.4L377.53,82.82v31.46h-8.19Z"/><path class="cls-2" d="M402.23,61.63h9.55v22h10.73v-22h9.62v52.65h-9.62V90.49H411.78v23.79h-9.55Z"/><path class="cls-2" d="M450.65,61.63h15.47c9.43,0,13.46,5.46,13.46,14.95,0,10.33-5.59,14.3-14.11,14.3h-5.26v23.4h-9.56Zm13.26,22.49c5.27,0,6.63-2,6.63-7.61s-.71-8.12-6.63-8.12h-3.7V84.12Z"/><path class="cls-2" d="M482.37,61.63h9.55v22h10.73v-22h9.62v52.65h-9.62V90.49H491.92v23.79h-9.55Z"/><path class="cls-2" d="M516.82,97.77V78c0-10.66,3.9-17,15.21-17s15.15,6.31,15.15,17V97.77c0,10.59-3.9,17.22-15.15,17.22S516.82,108.43,516.82,97.77ZM528,47h7.93l6,10.47h-6.43L532,50.9l-3.45,6.57h-6.37Zm9.43,53V75.8c0-4.42-.72-7.74-5.4-7.74s-5.46,3.32-5.46,7.74V100c0,4.36.72,7.87,5.46,7.87S537.43,104.4,537.43,100ZM544,42.52h7l-5.52,7.73h-4.94Z"/><path class="cls-2" d="M562.25,61.63h8.45l7,37.24,6.56-37.24h8.65l-10.6,52.65h-9.42Z"/><path class="cls-2" d="M601.51,61.63h10.27l10.53,52.65h-8.9l-2.08-12.16h-9.17L600,114.28h-9ZM596.57,45h9l3.84,13h-5.07Zm13.72,51-3.58-22.1L603.14,96Z"/><path class="cls-2" d="M167.84,183.44V164.66c0-10.79,3.44-17.62,15-17.62,10.8,0,14.24,6,14.24,15.15v4.42h-9.23v-4.55c0-4.42-.06-8-4.94-8s-5.4,3.77-5.4,8.58v22.82c0,5.72,1.17,8.45,5.4,8.45,4.75,0,4.94-3.71,4.94-8.39v-4.74h9.23V185c0,9.3-3.12,16-14.24,16C171.28,201,167.84,193.71,167.84,183.44Z"/><path class="cls-2" d="M200.27,183.77V164c0-10.66,3.9-17,15.21-17s15.15,6.31,15.15,17v19.76c0,10.59-3.9,17.22-15.15,17.22S200.27,194.43,200.27,183.77ZM211.45,133h7.93l6,10.47h-6.43l-3.51-6.57L212,143.47H205.6Zm9.43,53V161.8c0-4.42-.71-7.74-5.4-7.74S210,157.38,210,161.8V186c0,4.36.72,7.87,5.46,7.87S220.88,190.4,220.88,186Zm-9.43,18.59h8.06v8.13h-8.06Z"/><path class="cls-2" d="M235.05,147.63h6.69l12.81,30v-30h7.93v52.65h-6.37l-12.87-31.46v31.46h-8.19Z"/><path class="cls-2" d="M267,182.92V165.24c0-11.31,3.45-18.2,15-18.2,10.79,0,14.56,5.59,14.56,15.34v2.73h-9.17v-3c0-5.07-.52-8.06-5.26-8.06-5.07,0-5.46,4.1-5.46,8.91v22c0,5.46,1,8.91,5.72,8.91s5.78-3.64,5.78-9.36v-4.94H282.5v-6.05h14.3v26.72h-6.24l-.65-5.14c-1.43,3.38-4,5.85-8.91,5.85C270.6,201,267,194,267,182.92Z"/><path class="cls-2" d="M314.87,175.51h-3.25V170.7h3.25V147.63h12.41c12.81,0,16.64,5.13,16.64,16.38v19.17c0,11.57-4,17.1-16.31,17.1H314.87Zm12.61,18.07c6.63,0,6.82-3.51,6.82-10.07V163.36c0-6.31-.65-8.91-6.95-8.91h-3.06V170.7h3.51v4.81h-3.51v18.07Z"/><path class="cls-2" d="M347.5,183.77V164c0-10.66,3.9-17,15.21-17s15.14,6.31,15.14,17v19.76c0,10.59-3.9,17.22-15.14,17.22S347.5,194.43,347.5,183.77ZM358.68,133h7.93l6,10.47h-6.44l-3.51-6.57-3.44,6.57h-6.37Zm9.42,53V161.8c0-4.42-.71-7.74-5.39-7.74s-5.46,3.32-5.46,7.74V186c0,4.36.71,7.87,5.46,7.87S368.1,190.4,368.1,186Zm-.58-57.52h7l3.44,7.73h-5Z"/><path class="cls-2" d="M382.27,147.63H389l12.8,30v-30h7.93v52.65h-6.37l-12.87-31.46v31.46h-8.19Z"/><path class="cls-2" d="M414.19,182.92V165.24c0-11.31,3.44-18.2,15-18.2,10.79,0,14.56,5.59,14.56,15.34v2.73H434.6v-3c0-5.07-.52-8.06-5.27-8.06-5.07,0-5.46,4.1-5.46,8.91v22c0,5.46,1,8.91,5.72,8.91s5.79-3.64,5.79-9.36v-4.94h-5.66v-6.05H444v26.72h-6.24l-.65-5.14a8.87,8.87,0,0,1-8.9,5.85C417.83,201,414.19,194,414.19,182.92Z"/><path class="cls-2" d="M461.83,147.63h13c9.23,0,15.41,3.12,15.41,13.52,0,6.43-2.67,10-7.61,10.79,6.18,1.17,9.1,5.59,9.1,13,0,10.07-4.94,15.34-14.69,15.34H461.83Zm12.87,21.51c5.72,0,7.22-2.53,7.22-7.86,0-5.59-2.73-7-8.58-7h-1.95v14.82Zm.39,24.38c5.85,0,7.48-2.73,7.48-8.65,0-6.24-2.08-9.1-7.8-9.1h-3.38v17.75Z"/><path class="cls-2" d="M495.37,147.63h22.1v6.76H504.92v15.14h9.89v6.7h-9.89v17.48H517.6v6.57H495.37ZM502.59,133h7.93l6,10.47h-6.44l-3.51-6.57-3.45,6.57h-6.36Zm8.83-4.48h7l3.44,7.73h-5Z"/><path class="cls-2" d="M520.52,147.63h6.7l12.8,30v-30H548v52.65h-6.37l-12.88-31.46v31.46h-8.19Z"/><path class="cls-2" d="M563.94,147.63h8.45l7,37.24,6.57-37.24h8.64L584,200.28h-9.42Z"/><path class="cls-2" d="M626.54,150.55v32.7c0,11.05-3.06,17.74-14.82,17.74s-14.82-6.69-14.82-17.74V147.63h9.36v36.72c0,5,.58,9.49,5.46,9.49s5.52-4.48,5.52-9.49V147.63h4c2.6,0,3.51-1.69,3.51-5.2h6.44C631.16,146.52,629.46,149.19,626.54,150.55Zm-20.22-10.2h-4.55c0-4.68,1.3-8.19,5.53-8.19,3.18,0,5.33,3,8.12,3,1.5,0,2.09-.91,2.09-2.6h4.28c0,4.09-.71,8.19-4.94,8.19-3.38,0-5.59-3.06-8.25-3.06C606.91,137.68,606.32,138.66,606.32,140.35Z"/><path class="cls-2" d="M631.41,147.63h6.7l12.8,30v-30h7.93v52.65h-6.37L639.6,168.82v31.46h-8.19Z"/><path class="cls-2" d="M663.33,182.92V165.24c0-11.31,3.44-18.2,15-18.2,10.79,0,14.56,5.59,14.56,15.34v2.73h-9.16v-3c0-5.07-.52-8.06-5.27-8.06-5.07,0-5.46,4.1-5.46,8.91v22c0,5.46,1,8.91,5.72,8.91s5.79-3.64,5.79-9.36v-4.94h-5.66v-6.05h14.3v26.72h-6.24l-.65-5.14a8.87,8.87,0,0,1-8.9,5.85C667,201,663.33,194,663.33,182.92Z"/><path class="cls-2" d="M122.07,549.58H231.2a2.69,2.69,0,0,0,2.67-2.69,2.65,2.65,0,0,0-.7-1.78L233,545l-54.29-70.24-.53-.59a2.63,2.63,0,0,0-3.73-.18l-.33.38-.51.57-53,69.51-.81,1a2.64,2.64,0,0,0-.46,1.5A2.69,2.69,0,0,0,122.07,549.58Z"/><path class="cls-2" d="M230.87,559.48H121.53a2.68,2.68,0,0,0-2.68,2.68v85.57a2.68,2.68,0,0,0,2.68,2.68h35.19V596.58a2.67,2.67,0,0,1,2.68-2.68h32.66a2.67,2.67,0,0,1,2.68,2.68v53.83h36.13a2.68,2.68,0,0,0,2.67-2.68V562.16A2.68,2.68,0,0,0,230.87,559.48Z"/><path class="cls-2" d="M608.77,537.08H500.55a2.6,2.6,0,0,0-2.64,2.57V648.93a2.6,2.6,0,0,0,2.64,2.57H608.77a2.61,2.61,0,0,0,2.65-2.57V539.65a2.6,2.6,0,0,0-2.65-2.57m-59.21,71.34a2.61,2.61,0,0,1-2.64,2.59H514.58a2.63,2.63,0,0,1-2.66-2.59V588.78a2.61,2.61,0,0,1,2.66-2.58h32.34a2.6,2.6,0,0,1,2.64,2.58Zm0-36.31a2.61,2.61,0,0,1-2.64,2.58H514.58a2.62,2.62,0,0,1-2.66-2.58V552.45a2.62,2.62,0,0,1,2.66-2.58h32.34a2.61,2.61,0,0,1,2.64,2.58ZM599,608.42a2.62,2.62,0,0,1-2.65,2.59H564a2.62,2.62,0,0,1-2.65-2.59V588.78A2.6,2.6,0,0,1,564,586.2h32.32a2.6,2.6,0,0,1,2.65,2.58Zm0-36.31a2.61,2.61,0,0,1-2.65,2.58H564a2.61,2.61,0,0,1-2.65-2.58V552.45a2.61,2.61,0,0,1,2.65-2.58h32.32a2.61,2.61,0,0,1,2.65,2.58Z"/><path class="cls-2" d="M357.2,283.42H251.29A2.59,2.59,0,0,0,248.7,286V648a2.6,2.6,0,0,0,2.59,2.59H357.2a2.61,2.61,0,0,0,2.61-2.59V286a2.61,2.61,0,0,0-2.61-2.59m-63,325.9a1.4,1.4,0,0,1-1.39,1.39H268.56a1.39,1.39,0,0,1-1.39-1.39v-27a1.38,1.38,0,0,1,1.39-1.38h24.25a1.39,1.39,0,0,1,1.39,1.38Zm0-62.07a1.39,1.39,0,0,1-1.39,1.39H268.56a1.38,1.38,0,0,1-1.39-1.39v-27a1.38,1.38,0,0,1,1.39-1.4h24.25a1.39,1.39,0,0,1,1.39,1.4Zm0-62.05a1.39,1.39,0,0,1-1.39,1.39H268.56a1.39,1.39,0,0,1-1.39-1.39v-27a1.39,1.39,0,0,1,1.39-1.39h24.25a1.39,1.39,0,0,1,1.39,1.39Zm0-62.07a1.39,1.39,0,0,1-1.39,1.39H268.56a1.39,1.39,0,0,1-1.39-1.39v-27a1.37,1.37,0,0,1,1.39-1.37h24.25a1.38,1.38,0,0,1,1.39,1.37Zm0-62.05a1.4,1.4,0,0,1-1.39,1.39H268.56a1.39,1.39,0,0,1-1.39-1.39v-27a1.39,1.39,0,0,1,1.39-1.39h24.25a1.39,1.39,0,0,1,1.39,1.39Zm47.56,248.24a1.4,1.4,0,0,1-1.4,1.39H316.11a1.39,1.39,0,0,1-1.39-1.39v-27a1.38,1.38,0,0,1,1.39-1.38h24.25a1.39,1.39,0,0,1,1.4,1.38Zm0-62.07a1.39,1.39,0,0,1-1.4,1.39H316.11a1.38,1.38,0,0,1-1.39-1.39v-27a1.38,1.38,0,0,1,1.39-1.4h24.25a1.39,1.39,0,0,1,1.4,1.4Zm0-62.05a1.4,1.4,0,0,1-1.4,1.39H316.11a1.39,1.39,0,0,1-1.39-1.39v-27a1.39,1.39,0,0,1,1.39-1.39h24.25a1.4,1.4,0,0,1,1.4,1.39Zm0-62.07a1.4,1.4,0,0,1-1.4,1.39H316.11a1.39,1.39,0,0,1-1.39-1.39v-27a1.37,1.37,0,0,1,1.39-1.37h24.25a1.38,1.38,0,0,1,1.4,1.37Zm0-62.05a1.4,1.4,0,0,1-1.4,1.39H316.11a1.39,1.39,0,0,1-1.39-1.39v-27a1.39,1.39,0,0,1,1.39-1.39h24.25a1.4,1.4,0,0,1,1.4,1.39Z"/><path class="cls-2" d="M611.3,526.08a2.17,2.17,0,0,1-2.18,2.19H500.2a2.18,2.18,0,0,1-2.18-2.19V504.3a2.19,2.19,0,0,1,2.18-2.18H609.12a2.18,2.18,0,0,1,2.18,2.18Z"/><path class="cls-2" d="M485.13,351.77a2.8,2.8,0,0,0-2.66-2,2.76,2.76,0,0,0-1.52.5c-.06.05-.13.08-.2.14l-.89,1.12L375.77,483.55l-.48.64a3,3,0,0,0-.9,2.06V648.51a2.58,2.58,0,0,0,2.59,2.58H482.79a2.58,2.58,0,0,0,2.59-2.58V352.85A2.56,2.56,0,0,0,485.13,351.77ZM441.3,423.48l.75-.94c7.12-9.14,19.12-23.91,25-31.09l.77-.91a3,3,0,0,1,2.33-1.1,3,3,0,0,1,2.89,2.42v33.4a3,3,0,0,1-2.88,3c-.05,0-.09,0-.13,0s-.08,0-.13,0h-26c-.05,0-.09,0-.14,0s-.08,0-.13,0a3,3,0,0,1-2.29-4.76ZM424.83,608.4a2.58,2.58,0,0,1-2.59,2.59H390.68a2.58,2.58,0,0,1-2.59-2.59V588.64a2.58,2.58,0,0,1,2.59-2.58h31.56a2.58,2.58,0,0,1,2.59,2.58Zm0-36.5a2.58,2.58,0,0,1-2.59,2.58H390.68a2.58,2.58,0,0,1-2.59-2.58V552.14a2.57,2.57,0,0,1,2.59-2.59h31.56a2.57,2.57,0,0,1,2.59,2.59Zm0-36.51a2.58,2.58,0,0,1-2.59,2.58H390.68a2.58,2.58,0,0,1-2.59-2.58V515.62a2.58,2.58,0,0,1,2.59-2.59h31.56a2.58,2.58,0,0,1,2.59,2.59Zm.09-80v43.52a2.6,2.6,0,0,1-2.59,2.59H390.77a2.59,2.59,0,0,1-2.6-2.59v-5.48a2.84,2.84,0,0,1,.2-1,2,2,0,0,1,.15-.29,3,3,0,0,1,.23-.35l.3-.42c4-5.78,22.24-28.2,29.89-37.58l.76-.93a3,3,0,0,1,2.33-1.1,3,3,0,0,1,2.89,2.43Zm48.16,153A2.59,2.59,0,0,1,470.5,611H438.94a2.59,2.59,0,0,1-2.61-2.59V588.64a2.59,2.59,0,0,1,2.61-2.58H470.5a2.59,2.59,0,0,1,2.58,2.58Zm0-36.5a2.59,2.59,0,0,1-2.58,2.58H438.94a2.59,2.59,0,0,1-2.61-2.58V552.14a2.58,2.58,0,0,1,2.61-2.59H470.5a2.58,2.58,0,0,1,2.58,2.59Zm0-36.51A2.59,2.59,0,0,1,470.5,538H438.94a2.59,2.59,0,0,1-2.61-2.58V515.62a2.59,2.59,0,0,1,2.61-2.59H470.5a2.59,2.59,0,0,1,2.58,2.59Zm0-36.52a2.59,2.59,0,0,1-2.58,2.58H438.94a2.59,2.59,0,0,1-2.61-2.58V479.12a2.59,2.59,0,0,1,2.61-2.59H470.5a2.59,2.59,0,0,1,2.58,2.59Zm0-36.51A2.59,2.59,0,0,1,470.5,465H438.94a2.59,2.59,0,0,1-2.61-2.59V442.6a2.6,2.6,0,0,1,2.61-2.6H470.5a2.6,2.6,0,0,1,2.58,2.6Z"/></g></svg>