<svg xmlns="http://www.w3.org/2000/svg" viewBox="0 0 720 720"><defs><style>.cls-1{fill:#c5192d;}.cls-2{fill:#fff;}</style></defs><title>VN_SDG_icons_RGB outlines-01</title><g id="goal_background" data-name="goal background"><rect class="cls-1" x="-1.08" y="-1.08" width="722.16" height="722.16"/></g><g id="ENG_text_graphics" data-name="ENG text &amp; graphics"><path class="cls-2" d="M94.73,167.13H52.91v-20.4l35.87-85h30.43v85.51h13.43v19.89H119.21v32.3H94.73Zm0-19.89V88.76L73.65,147.24Z"/><path class="cls-2" d="M188.12,96.92V79.24c0-11.31,3.44-18.2,15-18.2,10.79,0,14.57,5.59,14.57,15.34v2.73h-9.17v-3c0-5.07-.52-8.06-5.27-8.06-5.07,0-5.46,4.1-5.46,8.91V99c0,5.46,1,8.91,5.72,8.91s5.79-3.64,5.79-9.36V93.61h-5.66v-6H218v26.72h-6.24l-.65-5.14a8.87,8.87,0,0,1-8.9,5.85C191.76,115,188.12,108,188.12,96.92Z"/><path class="cls-2" d="M225.23,61.63h9.49v52.65h-9.49Z"/><path class="cls-2" d="M250.39,61.63h10.27l10.53,52.65h-8.91l-2.08-12.16H251l-2.15,12.16h-9ZM259.16,96l-3.57-22.1L252,96Zm-2.34-51h9l-7.73,13h-5.14Z"/><path class="cls-2" d="M274.76,97.77V78c0-10.66,3.9-17,15.21-17s15.15,6.31,15.15,17V97.77c0,10.59-3.9,17.22-15.15,17.22S274.76,108.43,274.76,97.77ZM295.37,100V75.8c0-4.42-.72-7.74-5.4-7.74s-5.46,3.32-5.46,7.74V100c0,4.36.72,7.87,5.46,7.87S295.37,104.4,295.37,100Z"/><path class="cls-2" d="M327.35,61.63h12.41c12.81,0,16.71,5.13,16.71,16.38V97.18c0,11.57-4,17.1-16.32,17.1h-12.8Zm12.54,45.95c6.57,0,6.83-3.51,6.83-10.07V77.36c0-6.31-.65-8.91-7-8.91H336.9v39.13Z"/><path class="cls-2" d="M362.84,97.25V61.63h9.36V98.35c0,5,.58,9.49,5.46,9.49s5.52-4.48,5.52-9.49V61.63h9.3V97.25c0,11-3.06,17.74-14.82,17.74S362.84,108.3,362.84,97.25Zm10.85,21.38h8.06v8.13h-8.06Z"/><path class="cls-2" d="M398.85,97.44V78.66c0-10.79,3.44-17.62,15-17.62,10.79,0,14.24,6,14.24,15.15v4.42h-9.23V76.06c0-4.42-.07-8-4.94-8s-5.4,3.77-5.4,8.58V99.46c0,5.72,1.17,8.45,5.4,8.45,4.74,0,4.94-3.71,4.94-8.39V94.78h9.23V99c0,9.3-3.12,16-14.24,16C402.29,115,398.85,107.71,398.85,97.44Z"/><path class="cls-2" d="M188.12,183.44V164.66c0-10.79,3.44-17.62,15-17.62,10.79,0,14.24,6,14.24,15.15v4.42h-9.23v-4.55c0-4.42-.07-8-4.94-8s-5.4,3.77-5.4,8.58v22.82c0,5.72,1.17,8.45,5.4,8.45,4.74,0,4.94-3.71,4.94-8.39v-4.74h9.23V185c0,9.3-3.12,16-14.24,16C191.56,201,188.12,193.71,188.12,183.44Z"/><path class="cls-2" d="M222.89,183.77V164c0-10.66,3.9-17,15.21-17s15.15,6.31,15.15,17v19.76c0,10.59-3.9,17.22-15.15,17.22S222.89,194.43,222.89,183.77ZM243.5,186V161.8c0-4.42-.72-7.74-5.4-7.74s-5.46,3.32-5.46,7.74V186c0,4.36.72,7.87,5.46,7.87S243.5,190.4,243.5,186Zm-4.16-55h9l-7.74,13h-5.13Z"/><path class="cls-2" d="M274.63,183.44V164.66c0-10.79,3.45-17.62,15-17.62,10.79,0,14.23,6,14.23,15.15v4.42h-9.23v-4.55c0-4.42-.06-8-4.94-8s-5.39,3.77-5.39,8.58v22.82c0,5.72,1.17,8.45,5.39,8.45,4.75,0,4.94-3.71,4.94-8.39v-4.74h9.23V185c0,9.3-3.12,16-14.23,16C278.08,201,274.63,193.71,274.63,183.44Z"/><path class="cls-2" d="M310.38,147.63h9.56v22h10.72v-22h9.62v52.65h-9.62V176.49H319.94v23.79h-9.56Z"/><path class="cls-2" d="M355.88,147.63h10.27l10.53,52.65h-8.9l-2.08-12.16h-9.17l-2.14,12.16h-9ZM357.05,133H365l6,10.47h-6.43L361,136.9l-3.45,6.57H351.2Zm7.61,49-3.58-22.1L357.51,182ZM373,128.52h7l-5.52,7.73H369.6Z"/><path class="cls-2" d="M384.42,154.71H376v-7.08h26.2v7.08H394v45.57h-9.62Z"/><path class="cls-2" d="M422.18,147.63h9.56v46.08h12.8v6.57H422.18Z"/><path class="cls-2" d="M478,150.55v32.7C478,194.3,474.9,201,463.13,201s-14.82-6.69-14.82-17.74V147.63h9.36v36.72c0,5,.58,9.49,5.46,9.49s5.53-4.48,5.53-9.49V147.63h4c2.6,0,3.51-1.69,3.51-5.2h6.44C482.57,146.52,480.88,149.19,478,150.55Z"/><path class="cls-2" d="M514.68,164v19.76c0,10.59-3.9,17.22-15.15,17.22s-15.21-6.56-15.21-17.22V164c0-10.66,3.9-17,15.21-17a24.78,24.78,0,0,1,5.13.52c2.08-.26,2.8-1.95,2.8-5.13h6.44c0,3.7-1.43,6.3-3.91,7.73C513.38,153,514.68,157.77,514.68,164Zm-9.75-2.21c0-4.42-.72-7.74-5.4-7.74s-5.46,3.32-5.46,7.74V186c0,4.36.71,7.87,5.46,7.87s5.4-3.51,5.4-7.87Zm-9.43,42.83h8.06v8.13H495.5Z"/><path class="cls-2" d="M521.43,147.63h6.7l12.8,30v-30h7.93v52.65h-6.37l-12.87-31.46v31.46h-8.19Z"/><path class="cls-2" d="M555.69,182.92V165.24c0-11.31,3.44-18.2,15-18.2,10.79,0,14.56,5.59,14.56,15.34v2.73H576.1v-3c0-5.07-.52-8.06-5.27-8.06-5.07,0-5.46,4.1-5.46,8.91v22c0,5.46,1,8.91,5.72,8.91s5.79-3.64,5.79-9.36v-4.94h-5.66v-6.05h14.3v26.72h-6.24l-.65-5.14a8.87,8.87,0,0,1-8.9,5.85C559.33,201,555.69,194,555.69,182.92Z"/><polygon class="cls-2" points="318.96 386.25 188.84 311.12 188.84 554.17 318.96 593.42 318.96 386.25"/><polygon class="cls-2" points="333.27 386.75 333.27 593.51 464.23 554.14 464.23 311.13 333.27 386.75"/><polygon class="cls-2" points="539.4 549.86 535.58 549.86 550.98 603.66 566.36 549.86 562.54 549.86 566.36 549.86 566.36 333.62 562.54 333.62 558.72 333.62 554.66 333.62 547 333.62 543.23 333.62 539.4 333.62 535.58 333.62 535.58 549.86 539.4 549.86"/><polygon class="cls-2" points="492.17 321.56 478.23 310.54 478.23 560.76 333.65 607.47 326.96 607.47 325.64 607.47 318.96 607.47 175.03 567.26 175.03 310.54 161.07 321.56 161.07 577.05 318.3 620.58 325.64 620.58 326.96 620.58 334.31 620.58 479.36 574.52 492.17 570.75 492.17 321.56"/><path class="cls-2" d="M566.37,305a15.4,15.4,0,1,0-30.79,0v16.6h30.79Z"/></g></svg>